<?xml version="1.0" encoding="iso-8859-1"?>
<svg fill="#000000" height="110%" width="110%" version="1.1"  xmlns="http://www.w3.org/2000/svg" xmlns:xlink="http://www.w3.org/1999/xlink" 
	 viewBox="0 0 512 512" xml:space="preserve">
	<g>
		<path d="M457.532,152.511h-55.601c9.489-9.879,14.715-22.809,14.715-36.549c0-14.105-5.493-27.365-15.466-37.338
			c-9.973-9.973-23.234-15.467-37.338-15.467c-3.982,0-7.892,0.453-11.685,1.306c0.837-3.78,1.282-7.681,1.282-11.658
			C353.438,23.688,329.751,0,300.634,0C281.867,0,265.367,9.849,256,24.641C246.633,9.849,230.133,0,211.366,0
			c-29.116,0-52.805,23.688-52.805,52.805c0,3.977,0.444,7.878,1.282,11.658c-3.792-0.853-7.703-1.306-11.685-1.306
			c-14.104,0-27.365,5.493-37.338,15.467c-9.973,9.973-15.466,23.234-15.466,37.338c0,13.74,5.226,26.67,14.714,36.549H54.468
			c-4.512,0-8.17,3.658-8.17,8.17v136.17c0,4.512,3.658,8.17,8.17,8.17h13.617V503.83c0,4.512,3.658,8.17,8.17,8.17h359.489
			c4.512,0,8.17-3.658,8.17-8.17V305.021h13.617c4.512,0,8.17-3.658,8.17-8.17v-136.17
			C465.702,156.169,462.044,152.511,457.532,152.511z M338.057,90.176c6.887-6.886,16.044-10.679,25.784-10.679
			s18.896,3.793,25.783,10.68c6.887,6.887,10.68,16.044,10.68,25.784s-3.792,18.896-10.68,25.783
			c-6.941,6.943-16.086,10.765-25.748,10.765h-88.152L338.057,90.176z M299.574,168.851v119.83h-87.149v-119.83H299.574z
			 M211.366,16.34c20.106,0,36.464,16.358,36.464,36.464c0,4.512,3.658,8.17,8.17,8.17s8.17-3.658,8.17-8.17
			c0-20.106,16.358-36.464,36.464-36.464c20.106,0,36.464,16.358,36.464,36.464c0,9.817-3.763,18.987-10.595,25.819l-62.333,62.333
			V85.485c0-4.512-3.658-8.17-8.17-8.17c-4.512,0-8.17,3.658-8.17,8.17v55.471l-62.333-62.333
			c-6.831-6.832-10.594-16.002-10.594-25.819C174.902,32.698,191.259,16.34,211.366,16.34z M122.375,90.178
			c6.888-6.887,16.044-10.68,25.783-10.68s18.897,3.793,25.784,10.68l62.333,62.333h-88.152
			c-9.662-0.001-18.806-3.825-25.748-10.766c-6.887-6.887-10.68-16.044-10.68-25.783S115.487,97.065,122.375,90.178z
			 M62.638,288.681v-119.83h133.447v119.83H62.638z M427.574,495.66h-111.66V329.532c0-4.512-3.658-8.17-8.17-8.17
			s-8.17,3.658-8.17,8.17V495.66h-87.149V329.532c0-4.512-3.658-8.17-8.17-8.17s-8.17,3.658-8.17,8.17V495.66H84.426V305.021
			h343.149V495.66z M449.362,288.681H315.915v-119.83h133.447V288.681z"/>
	</g>
</svg>