<svg width="105" height="143" viewBox="0 0 105 143" fill="none" xmlns="http://www.w3.org/2000/svg">
<path d="M52.0304 58.9265L50.1521 86.1378L70.2505 78.4436L52.0304 58.9265Z" fill="#E51508"/>
<path d="M70.2505 49.3556L52.0304 58.9265L70.2505 78.4436V65.4948V49.3556Z" fill="#DD0D01"/>
<path d="M70.2505 65.4948V78.4436L91.6637 74.878L70.2505 49.3556V65.4948Z" fill="#C91602"/>
<path d="M91.6637 74.878L70.2505 78.4436L92.415 99.2743L91.6637 74.878Z" fill="#B82214"/>
<path d="M70.2505 78.4436L50.1521 86.1378L76.8247 108.47L70.2505 78.4436Z" fill="#C62D1B"/>
<path d="M70.2505 78.4436L76.8247 108.47L80.1505 117.884L80.2057 118.041L92.415 99.2743L70.2505 78.4436Z" fill="#BA1301"/>
<path d="M91.6637 74.878L92.415 99.2743L101.055 74.1273L91.6637 74.878Z" fill="#B11A09"/>
<path d="M86.2165 49.3556H70.2505L91.6637 74.878L86.2165 49.3556Z" fill="#C12212"/>
<path d="M86.2165 49.3556L91.6637 74.878L101.055 74.1273L97.4866 49.3556H86.2165Z" fill="#B11606"/>
<path d="M74.7585 35.0932L86.2165 49.3556H97.4866L88.2826 38.4711L82.4598 35.6562L79.8301 36.0315L74.7585 35.0932Z" fill="#C9180D"/>
<path d="M70.2505 49.3556H86.2165L74.7585 35.0932L66.3059 33.0289L70.2505 38.8465C70.5635 41.4112 71.0018 47.1037 70.2505 49.3556Z" fill="#CE1D14"/>
<path fill-rule="evenodd" clip-rule="evenodd" d="M50.1521 86.1378L76.8247 108.47L50.1521 109.971V86.1378Z" fill="#BB1106"/>
<path d="M62.3614 131.177L76.8247 108.47L50.1521 109.971L62.3614 131.177Z" fill="#C31202"/>
<path d="M76.8247 108.47L62.3614 131.177L80.1505 117.884L76.8247 108.47Z" fill="#B12516"/>
<path d="M70.2505 131.177L80.2057 118.041L80.1505 117.884L62.3614 131.177H70.2505Z" fill="#AD0C02"/>
<path d="M70.2505 131.177H62.3614V139.247L70.2505 131.177Z" fill="#BC180D"/>
<path d="M62.3614 131.177L50.1521 109.971V143L62.3614 139.247V131.177Z" fill="#CF3327"/>
<path d="M50.1521 143V109.971L39.2576 129.676L50.1521 143Z" fill="#DF0D00"/>
<path d="M50.1521 143L39.2576 129.676V139.997L50.1521 143Z" fill="#E47562"/>
<path d="M39.2576 139.997V129.676L31.5564 133.054L39.2576 139.997Z" fill="#E1625A"/>
<path d="M31.5564 133.054L39.2576 129.676L24.6064 107.907L22.9159 121.231L31.5564 133.054Z" fill="#E64E49"/>
<path d="M39.2576 129.676L50.1521 109.971L24.6064 107.907L39.2576 129.676Z" fill="#E51508"/>
<path d="M50.1521 109.971V86.1378L24.6064 107.907L50.1521 109.971Z" fill="#DA0E07"/>
<path d="M50.1521 86.1378L30.2415 80.1325L24.6064 107.907L50.1521 86.1378Z" fill="#E61404"/>
<path d="M8.45259 98.899L24.6064 107.907L9.76744 76.7546L8.45259 98.899Z" fill="#D84747"/>
<path d="M22.9159 121.231L24.6064 107.907L8.45259 98.899L22.9159 121.231Z" fill="#E72314"/>
<path d="M30.2415 80.1325L9.76744 76.7546L24.6064 107.907L30.2415 80.1325Z" fill="#DA0F00"/>
<path d="M50.1521 86.1378L52.0304 58.9265L30.2415 80.1325L50.1521 86.1378Z" fill="#ED3733"/>
<path d="M30.2415 80.1325L52.0304 58.9265L32.8712 51.6076L30.2415 80.1325Z" fill="#FE5252"/>
<path d="M30.2415 80.1325L32.8712 51.6076L15.2147 48.7927L9.76744 76.7546L30.2415 80.1325Z" fill="#FB3C44"/>
<path d="M52.0304 58.9265L70.2505 49.3556C62.4365 48.7551 55.0984 37.7205 52.0304 32.2782V58.9265Z" fill="#EF3834"/>
<path d="M32.8712 51.6076L52.0304 58.9265V32.2782L32.8712 51.6076Z" fill="#F4413C"/>
<path d="M32.8712 37.5328V51.6076L52.0304 32.2782L49.4007 31.978L46.771 31.6777L45.4562 31.5276L43.39 32.2782L35.8766 36.9698L32.8712 37.5328Z" fill="#DC1D12"/>
<path d="M15.2147 48.7927L32.8712 51.6076V37.5328L28.3631 38.8465H25.1699L15.2147 48.7927Z" fill="#F4433D"/>
<path d="M15.2147 48.7927L25.1699 38.8465H16.3417L21.4132 35.2808L18.4079 35.6562L15.7782 36.5945L2.44186 49.9186L15.2147 48.7927Z" fill="#EA2326"/>
<path d="M9.76744 76.7546L15.2147 48.7927L2.44186 49.9186L9.76744 76.7546Z" fill="#EE190B"/>
<path d="M0 73.752L9.76744 76.7546L2.44186 49.9186L0 73.752Z" fill="#D71509"/>
<path d="M8.45259 98.899L9.76744 76.7546L0 73.752L8.45259 98.899Z" fill="#F0281B"/>
<path d="M52.0304 32.2782C55.0984 37.7205 62.4365 48.7551 70.2505 49.3556L61.2343 38.8465L58.9803 33.9672L53.5331 29.6509L52.0304 32.2782Z" fill="#8ABB3F"/>
<path d="M61.2343 38.8465L70.2505 49.3556C68.5599 44.5389 64.8784 34.7178 63.6762 33.9672C62.4741 33.2165 59.6691 30.2765 58.4168 28.9003L55.975 29.2756L53.5331 29.6509L58.9803 33.9672L61.2343 38.8465Z" fill="#6E9D16"/>
<path d="M70.2505 38.8465L66.3059 33.0289L62.3614 30.9646L60.2269 29.6509L58.4168 28.9003C59.6691 30.2765 62.4741 33.2165 63.6762 33.9672C64.8784 34.7178 68.5599 44.5389 70.2505 49.3556C71.0018 47.1037 70.5635 41.4112 70.2505 38.8465Z" fill="#538613"/>
<path d="M52.0304 32.2782V22.1444L50.1521 13.3241H46.771L49.4007 31.978L52.0304 32.2782Z" fill="#548609"/>
<path d="M50.1521 13.3241L48.2737 7.3189L43.39 0L45.4562 7.3189L46.771 13.3241H50.1521Z" fill="#6B9715"/>
<path d="M46.771 13.3241L41.6995 14.8255L46.771 31.6777L49.4007 31.978L46.771 13.3241Z" fill="#689514"/>
<path d="M41.6995 14.8255L46.771 13.3241L45.4562 7.3189L43.39 0L41.6995 14.8255Z" fill="#88B33D"/>
<path d="M38.5063 16.3268C39.1476 18.9431 41.0205 24.6675 43.8915 29.2756C44.384 30.0662 44.906 30.824 45.4562 31.5276L46.771 31.6777L41.6995 14.8255L38.5063 16.3268Z" fill="#7EAF09"/>
<path d="M43.39 0L38.5063 9.75853V16.3268L41.6995 14.8255L43.39 0Z" fill="#9DC44F"/>
<path d="M52.0304 32.2782L53.5331 29.6509L55.975 29.2756C57.0224 23.1197 59.6463 10.1427 61.8777 6.72649L56.3506 14.8255C55.0358 18.1409 52.3309 26.273 52.0304 32.2782Z" fill="#ABCA6C"/>
<path d="M58.4168 28.9003L61.61 20.2677L61.9857 6.56824L61.8777 6.72649C59.6463 10.1427 57.0224 23.1197 55.975 29.2756L58.4168 28.9003Z" fill="#9BC64D"/>
<path d="M61.61 20.2677L58.4168 28.9003L64.5129 22.5197C66.2342 18.5054 63.5453 10.2128 61.9857 6.56824L61.61 20.2677Z" fill="#84AE37"/>
<path d="M91.288 5.81759C87.907 8.007 79.9052 12.5735 76.449 13.3241L66.3059 20.643L64.5129 22.5197L58.4168 28.9003L60.2269 29.6509L67.8086 22.1444L91.288 5.81759Z" fill="#93B254"/>
<path d="M62.3614 30.9646C62.6507 30.6996 63.0342 30.4568 63.4845 30.2352L81.1449 18.7664C84.0877 15.5136 90.5367 8.36982 91.288 5.81759L67.8086 22.1444L60.2269 29.6509L62.3614 30.9646Z" fill="#6A9A13"/>
<path d="M72.1288 28.3373L82.4598 21.5814L89.034 14.8255L91.288 5.81759C90.5367 8.36982 84.0877 15.5136 81.1449 18.7664L63.4845 30.2352C65.8406 29.0756 70.0262 28.4948 72.1288 28.3373Z" fill="#528C04"/>
<path d="M66.3059 33.0289L74.7585 35.0932L79.8301 36.0315L82.4598 35.6562L95.2618 33.2364L96.3596 33.0289L95.2326 32.2782L84.1503 31.6777L77.2004 28.3373H72.1288C70.0262 28.4948 65.8406 29.0756 63.4845 30.2352L62.3614 30.9646L66.3059 33.0289Z" fill="#7EAD0F"/>
<path d="M82.4598 35.6562L88.2826 38.4711L96.9231 37.9081L105 33.0289H96.9231C96.3738 33.1094 95.8197 33.1783 95.2618 33.2364L82.4598 35.6562Z" fill="#588B0A"/>
<path d="M23.1038 16.3268L13.5242 14.4501L5.63506 18.3911L21.7889 18.9541L23.1038 16.3268Z" fill="#88B33E"/>
<path d="M43.8915 29.2756L23.1038 16.3268L21.7889 18.9541L39.611 28.5838C41.2426 28.7065 42.8583 29.0151 43.8915 29.2756Z" fill="#5A8C11"/>
<path d="M21.7889 18.9541L5.63506 18.3911C6.13193 18.5565 6.6918 18.7463 7.2939 18.9541C11.0253 18.3535 28.6551 25.1268 37.0036 28.5884C37.815 28.505 38.7154 28.5164 39.611 28.5838L21.7889 18.9541Z" fill="#689A17"/>
<path d="M19.1592 24.021L34.7496 29.2756C35.3032 28.8926 36.098 28.6815 37.0036 28.5884C28.6551 25.1268 11.0253 18.3535 7.2939 18.9541C11.6994 20.4746 18.366 22.9644 19.1592 24.021Z" fill="#608E12"/>
<path d="M25.1699 38.8465H28.3631L32.8712 37.5328L35.8766 36.9698L43.39 32.2782L45.4562 31.5276C44.906 30.824 44.384 30.0662 43.8915 29.2756C41.9712 29.5258 37.9052 30.3265 37.0036 31.5276C36.102 32.7286 22.8533 36.9073 16.3417 38.8465H25.1699Z" fill="#719318"/>
<path d="M21.4132 35.2808L16.3417 38.8465C22.8533 36.9073 36.102 32.7286 37.0036 31.5276C37.9052 30.3265 41.9712 29.5258 43.8915 29.2756C42.8583 29.0151 41.2426 28.7065 39.611 28.5838C38.7154 28.5164 37.815 28.505 37.0036 28.5884C36.098 28.6815 35.3032 28.8926 34.7496 29.2756C33.8199 29.4342 32.5239 29.6945 31.2061 30.0262C28.8851 30.6105 26.4964 31.4164 25.9213 32.2782L23.4794 34.5302L21.4132 35.2808Z" fill="#8FB544"/>
<path d="M34.7496 29.2756L22.3524 28.5249L13.5242 30.9646C12.3008 31.5906 10.3835 32.532 8.50003 33.3786C17.8274 30.4052 27.1807 29.8678 31.2061 30.0262C32.5239 29.6945 33.8199 29.4342 34.7496 29.2756Z" fill="#82A628"/>
<path d="M4.57089 34.9684C8.36372 34.2311 19.847 32.9227 25.9213 32.2782C26.4964 31.4164 28.8851 30.6105 31.2061 30.0262C27.1807 29.8678 17.8274 30.4052 8.50003 33.3786C7.06277 34.0246 5.64525 34.6153 4.57089 34.9684Z" fill="#8AB541"/>
<path d="M18.4079 35.6562L21.4132 35.2808L23.4794 34.5302L25.9213 32.2782C19.847 32.9227 8.36372 34.2311 4.57089 34.9684C4.0989 35.1236 3.69314 35.2329 3.38104 35.2808L13.1485 36.0315L18.4079 35.6562Z" fill="#5E8506"/>
</svg>
