<svg width="49" height="49" viewBox="0 0 69 79" fill="none" xmlns="http://www.w3.org/2000/svg">
<g id="kplogo 1" clip-path="url(#clip0_2_54)">
<g id="&#226;&#128;&#148;&#208;&#187;&#208;&#190;&#208;&#185;_1">
<g id="logo">
<g id="logo-border">
<path id="Vector" d="M63.75 53.37V78.62H64.54V53.06L63.75 53.37Z" fill="#1D1D1B"/>
<path id="Vector_2" d="M3.5 30.76V2.3H18.89V1.51H2.71V31.14L3.5 30.76Z" fill="#1D1D1B"/>
<path id="Vector_3" d="M2.71 78.62H3.5V55.85L2.71 55.42V78.62Z" fill="#1D1D1B"/>
<path id="Vector_4" d="M48.36 2.3H63.75V30.87L64.54 31.25V1.51H48.36V2.3Z" fill="#1D1D1B"/>
</g>
<g id="logo-bottom-text">
<path id="Vector_5" d="M12.52 73.94H13.6C14.72 73.94 15.32 74.36 15.32 75.1C15.32 75.89 14.42 76.36 13.6 76.36H13.31V78.17C13.31 78.31 13.4 78.56 13.55 78.56H13.59V78.63H12.52V78.56H12.56C12.71 78.56 12.8 78.31 12.8 78.17V74.39C12.8 74.25 12.72 74.04 12.56 74.02H12.52V73.95V73.94ZM13.31 74.19V76.11H13.54C14.36 76.11 14.81 75.66 14.81 75.2C14.81 74.66 14.45 74.19 13.42 74.19H13.31Z" fill="#1D1D1B"/>
<path id="Vector_6" d="M19.3 78.55V78.62H18.23V78.55H18.27C18.42 78.55 18.51 78.3 18.51 78.16V74.38C18.51 74.24 18.42 74.01 18.27 74.01H18.23V73.94H19.55C20.56 73.94 21.14 74.32 21.14 75.03C21.14 75.74 20.6 76.1 19.96 76.22L20.51 77C20.78 77.38 21.05 77.73 21.31 78.12C21.45 78.31 21.65 78.55 21.88 78.55V78.62H21.55C21.15 78.62 20.9 78.41 20.73 78.16C20.27 77.54 19.83 76.88 19.38 76.26C19.27 76.26 19.14 76.24 19.02 76.22V78.16C19.02 78.3 19.11 78.55 19.26 78.55H19.3ZM19.02 74.18V75.98H19.06C19.14 75.98 19.32 75.99 19.58 75.99C20 75.99 20.61 75.76 20.61 75.05C20.61 74.34 20 74.17 19.13 74.17H19.02V74.18Z" fill="#1D1D1B"/>
<path id="Vector_7" d="M24.61 78.55H24.65C24.8 78.55 24.91 78.32 24.91 78.17V74.37C24.91 74.23 24.8 74 24.65 74H24.61V73.93H27.53V74.59H27.45C27.43 74.37 27.28 74.18 26.93 74.18H25.4V75.97H26.66C26.9 75.97 27.07 75.81 27.07 75.64H27.15V76.53H27.07C27.07 76.36 26.9 76.22 26.66 76.22H25.4V78.37H27.06C27.45 78.37 27.63 77.99 27.63 77.79H27.71V78.62H24.6V78.55H24.61Z" fill="#1D1D1B"/>
<path id="Vector_8" d="M34.65 78.55H34.69C34.84 78.55 34.93 78.3 34.93 78.16V74.43L32.97 78.7L31.11 74.65V78.16C31.11 78.3 31.2 78.55 31.36 78.55H31.4V78.62H30.57V78.55H30.61C30.76 78.55 30.85 78.3 30.85 78.16V74.38C30.85 74.24 30.77 74.01 30.61 74.01H30.57V73.94H31.34L33.1 77.82L34.86 73.94H35.72V74.01H35.68C35.52 74.01 35.43 74.24 35.43 74.38V78.16C35.43 78.3 35.52 78.55 35.68 78.55H35.72V78.62H34.64V78.55H34.65Z" fill="#1D1D1B"/>
<path id="Vector_9" d="M38.77 73.94H39.86V74.01H39.82C39.68 74.01 39.58 74.24 39.58 74.38V78.16C39.58 78.3 39.67 78.55 39.82 78.55H39.86V78.62H38.77V78.55H38.81C38.97 78.55 39.06 78.31 39.06 78.16V74.38C39.06 74.24 38.97 74.01 38.81 74.01H38.77V73.94Z" fill="#1D1D1B"/>
<path id="Vector_10" d="M42.86 73.94H43.94V74.01H43.9C43.74 74.01 43.65 74.24 43.65 74.38V77.18C43.65 77.92 43.95 78.46 44.87 78.46C45.88 78.46 46.02 77.79 46.02 77.2V74.38C46.02 74.24 45.93 74.01 45.78 74.01H45.74V73.94H46.57V74.01H46.53C46.38 74.01 46.29 74.24 46.29 74.38V77.18C46.29 78.41 45.59 78.7 44.73 78.7C43.82 78.7 43.14 78.39 43.14 77.19V74.39C43.14 74.25 43.05 74.02 42.9 74.02H42.86V73.95V73.94Z" fill="#1D1D1B"/>
<path id="Vector_11" d="M53.66 78.55H53.7C53.85 78.55 53.94 78.3 53.94 78.16V74.43L51.98 78.7L50.12 74.65V78.16C50.12 78.3 50.21 78.55 50.37 78.55H50.41V78.62H49.58V78.55H49.62C49.77 78.55 49.86 78.3 49.86 78.16V74.38C49.86 74.24 49.78 74.01 49.62 74.01H49.58V73.94H50.35L52.11 77.82L53.87 73.94H54.73V74.01H54.69C54.53 74.01 54.44 74.24 54.44 74.38V78.16C54.44 78.3 54.53 78.55 54.69 78.55H54.73V78.62H53.65V78.55H53.66Z" fill="#1D1D1B"/>
</g>
<g id="logo-top-text">
<path id="Vector_12" d="M24.43 4.44V4.37C24.67 4.37 24.71 4.21 24.71 4.02V0.62C24.71 0.62 24.69 0.55 24.63 0.55C24.61 0.55 24.58 0.55 24.55 0.57L23.68 0.83V0.57L25.45 0V0.19C25.29 0.25 25.18 0.4 25.2 0.59V3.99C25.2 4.19 25.25 4.37 25.5 4.37V4.44H24.43Z" fill="#1D1D1B"/>
<path id="Vector_13" d="M29.2 3.94C29.36 4.13 29.61 4.26 29.81 4.22C30.69 4.22 31.13 3.33 31.24 2.69C30.94 2.94 30.58 3.02 30.18 3.02C29.14 3.02 28.63 2.3 28.63 1.57C28.63 0.840002 29.16 0.0800018 30.19 0.0800018C31.34 0.0800018 31.82 0.940002 31.82 1.91C31.82 3.17 31.29 4.54 29.79 4.54C29.65 4.54 29.4 4.5 29.27 4.48C29.2 4.48 29.1 4.46 29.12 4.46V3.95H29.2V3.94ZM31.35 1.71C31.35 1.05 30.91 0.330002 30.14 0.330002C29.45 0.330002 29.1 0.890002 29.1 1.47C29.1 2.12 29.53 2.78 30.27 2.78C31.01 2.78 31.35 2.26 31.35 1.72V1.71Z" fill="#1D1D1B"/>
<path id="Vector_14" d="M35.2 3.94C35.36 4.13 35.61 4.26 35.81 4.22C36.69 4.22 37.13 3.33 37.24 2.69C36.94 2.94 36.58 3.02 36.18 3.02C35.14 3.02 34.63 2.3 34.63 1.57C34.63 0.840002 35.16 0.0800018 36.19 0.0800018C37.34 0.0800018 37.82 0.940002 37.82 1.91C37.82 3.17 37.29 4.54 35.79 4.54C35.65 4.54 35.4 4.5 35.27 4.48C35.2 4.48 35.1 4.46 35.12 4.46V3.95H35.2V3.94ZM37.35 1.71C37.35 1.05 36.91 0.330002 36.14 0.330002C35.45 0.330002 35.1 0.890002 35.1 1.47C35.1 2.12 35.53 2.78 36.27 2.78C37.01 2.78 37.35 2.26 37.35 1.72V1.71Z" fill="#1D1D1B"/>
<path id="Vector_15" d="M41.77 4.44H41.41L43.04 0.470002H41.06C40.82 0.470002 40.52 0.500002 40.52 0.870002H40.44V0.0800018H43.55L41.76 4.44H41.77Z" fill="#1D1D1B"/>
</g>
<path id="logo-image" d="M67.9 41C67.72 40.7 67.68 40.49 67.83 40.2C68.04 39.81 67.98 39.42 67.59 39.26C67.03 39.03 67.08 38.67 67.2 38.19C67.24 38.01 67.17 37.73 67.05 37.59C66.35 36.79 65.49 36.21 64.52 35.85C64.14 35.71 64.01 35.48 64.08 35.05C64.22 34.26 63.95 33.84 63.19 33.71C62.59 33.61 61.97 33.61 61.35 33.59C61.03 33.58 60.77 33.59 60.93 33.1C60.97 32.97 60.83 32.65 60.7 32.6C59.74 32.17 58.77 31.92 57.73 32.36C57.2 32.58 56.65 32.73 56.07 32.93C56.07 32.78 56.07 32.71 56.07 32.64C56.07 31.48 55.99 31.4 54.88 31.31C54.77 31.31 54.67 31.29 54.56 31.28C53.76 31.2 53.06 31.42 52.52 32.08C52.35 32.29 52.13 32.47 51.92 32.68C51.18 31.09 50.81 30.98 49.49 31.97C49.01 32.33 48.57 32.74 48.11 33.13C48.06 33.13 48.01 33.12 47.97 33.11C47.99 32.81 47.95 32.47 48.06 32.2C48.25 31.77 48.2 31.4 47.96 31.05C47.76 30.75 47.8 30.51 47.89 30.18C48.24 29.02 48.5 27.85 47.53 26.83C47.44 26.74 47.44 26.52 47.44 26.36C47.44 25.55 47.49 24.73 47.44 23.92C47.42 23.6 47.25 23.12 47.03 23.03C46.53 22.83 46.49 22.43 46.37 22.02C46.32 21.84 46.27 21.66 46.21 21.49C45.95 20.69 45.4233 20.3067 44.63 20.34C44.98 19.6 44.75 18.93 44.47 18.27C44.35 17.98 44.2 17.7 44.13 17.4C44 16.86 43.84 16.39 43.27 16.54C42.94 15.69 42.66 14.92 42.35 14.16C42.12 13.6 41.85 13.51 41.3 13.74C41.04 13.85 40.89 13.81 40.75 13.54C40.29 12.71 39.81 11.9 39.33 11.09C39.16 10.8 38.95 10.68 38.65 10.96C38.61 10.99 38.58 11.02 38.54 11.05C38.54 11.05 38.54 11.04 38.54 11.03C37.53 11.88 36.19 12.55 34.7 12.94C34.63 12.91 34.57 12.9 34.51 12.9C34.28 12.92 33.86 13.6 33.63 14.15C33.16 14.56 32.62 14.89 32.04 15.12C31.99 15.14 31.94 15.17 31.89 15.19C31.89 15.19 30.46 17.05 30.04 18.15C29.72 18.03 29.43 17.48 29.16 17.94C28.44 19.15 27.11 20.1 27.51 21.83C27.52 21.88 27.48 21.93 27.47 21.99C27.4 21.99 27.32 22.02 27.26 21.99C26.81 21.73 26.53 21.85 26.4 22.38C26.13 23.43 25.86 24.47 25.59 25.52C25.42 25.57 25.06 25.56 24.96 25.72C24.72 26.11 24.48 26.57 24.45 27.02C24.38 28.07 24.43 29.13 24.44 30.18C24.44 30.45 24.46 30.63 24.12 30.76C23.89 30.85 23.63 31.2 23.6 31.47C23.44 32.69 23.65 33.86 24.22 34.95C24.29 35.08 24.24 35.29 24.21 35.45C24.17 35.63 24.06 35.79 24.03 35.96C24 36.18 24.03 36.41 24.03 36.69C23.59 36.39 23.38 35.74 22.77 36.27C22.66 36.04 22.55 35.86 22.48 35.66C22.31 35.24 22.17 34.8 21.98 34.39C21.59 33.53 20.74 33.22 20.07 32.7C19.39 32.16 19.38 32.17 18.78 32.81C17.94 32.1 17.04 31.5 15.95 31.32C15.89 31.31 15.83 31.24 15.78 31.19C15.38 30.8 15.05 30.9 14.79 31.35C14.61 31.67 14.44 31.63 14.15 31.47C13.59 31.16 13 30.93 12.42 30.67C12.03 30.49 11.86 30.65 11.85 31.07C11.84 31.41 11.8 31.75 11.77 32.2C10.57 31.3 9.28 31.26 8 31.17C7.54 31.14 7.4 31.35 7.47 31.81C7.52 32.16 7.53 32.52 7.57 33C6.6 32.5 5.74 32.63 4.9 32.95C4.26 33.19 4.23 33.32 4.61 33.94C4.67 34.04 4.7 34.16 4.78 34.37C4.22 34.37 3.73 34.36 3.24 34.37C2.73 34.39 2.47 34.64 2.51 35.21C2.51 35.34 2.32 35.62 2.25 35.61C1.75 35.51 1.67 35.85 1.63 36.22C1.58 36.79 1.47 37.38 1.57 37.93C1.69 38.55 1.47 38.66 0.989999 38.73C0.269999 38.84 -0.100001 39.44 0.0899989 40.14C0.239999 40.66 0.429999 41.18 0.659999 41.67C0.929999 42.26 1.25 42.82 1.56 43.41C1.47 43.45 1.42 43.48 1.38 43.48C0.639999 43.52 0.569999 43.63 0.779999 44.37C0.939999 44.94 1.08 45.51 1.25 46.07C1.47 46.81 1.8 47.47 2.54 47.79C2.68 47.85 2.81 47.97 2.94 48.07C2.88 48.07 2.83 48.05 2.77 48.04C2.63 48.31 2.34 48.61 2.39 48.84C2.7 50.24 3.37 51.39 4.67 52.03C4.92 52.15 5.16 52.43 5.28 52.69C5.72 53.66 6.33 54.34 7.41 54.44C7.7 54.47 7.97 54.58 8.26 54.65C8 55.6 8.1 55.8 8.9 56.16C9.37 56.37 9.82 56.63 10.3 56.79C10.67 56.92 11.09 57.01 11.48 56.99C11.81 56.97 11.92 57.03 11.96 57.37C11.99 57.62 11.99 58 12.37 57.95C13.12 57.87 13.86 57.78 14.6 57.62C15.03 57.53 15.43 57.29 15.86 57.11C15.86 57.67 16.13 57.9533 16.67 57.96C16.97 57.96 17.27 57.96 17.57 57.97C18.56 58.03 19.47 57.85 20.14 56.98C20.15 56.97 20.2 56.98 20.28 56.99C20.31 57.13 20.3 57.33 20.39 57.43C20.56 57.62 20.81 57.92 21 57.9C22.2 57.79 23.3 57.4 24.03 56.28C24.14 56.12 24.31 56 24.54 55.77C24.56 56.14 24.56 56.36 24.59 56.57C24.67 57.13 24.92 57.29 25.41 57.08C26.21 56.72 27 56.34 27.79 55.98C27.88 56.69 28.01 56.76 28.7 56.51C29.42 56.25 30.13 56 30.86 55.76C31.65 55.5 31.84 55.59 32.26 56.4C32.34 56.55 32.42 56.69 32.46 56.85C32.71 57.79 33.04 58.72 33.18 59.69C33.52 61.9 33.78 64.13 34.05 66.35C34.1 66.81 34.26 67.02 34.75 66.95C34.71 66.6 34.68 66.25 34.64 65.91C34.53 65.07 34.46 64.21 34.27 63.38C34.08 62.57 34.47 61.75 34.12 60.95C34.09 60.88 34.25 60.72 34.33 60.6C34.39 60.5 34.46 60.41 34.46 60.4C34.27 60.14 34.06 59.97 34 59.75C33.82 59.09 34.56 59.54 34.69 59.07C34.41 58.98 34.14 58.89 33.76 58.77C33.96 58.58 34.11 58.44 34.28 58.28C34 58.09 33.49 58.12 33.6 57.55C34.64 57.42 34.96 57.72 34.94 58.77C34.93 59.55 34.83 60.34 34.92 61.1C35.14 63.06 35.42 65.02 35.71 66.97C35.73 67.13 36 67.25 36.16 67.38C36.21 67.34 36.26 67.29 36.31 67.25C36.24 66.84 36.15 66.43 36.1 66.01C35.8 63.39 35.56 60.77 35.98 58.14C36.07 57.57 36.26 57.03 36.41 56.43C36.58 56.52 36.66 56.54 36.7 56.59C37.31 57.19 38.05 57.44 38.87 57.45C39.1 57.45 39.44 57.34 39.54 57.17C39.75 56.78 39.92 56.81 40.24 57.01C41.27 57.64 42.37 57.98 43.58 57.74C43.89 57.68 44.26 57.66 44.47 57.46C44.67 57.28 44.71 56.89 44.83 56.57C45.6 57.11 46.47 57.34 47.43 57.06C48.11 56.86 48.79 56.69 49.47 56.51C49.57 56.48 49.71 56.44 49.74 56.36C49.94 55.75 50.4 55.89 50.84 55.9C51.19 55.91 51.56 55.95 51.89 55.86C52.68 55.65 53.6 55.61 53.89 54.62C54.66 54.48 55.42 54.41 56.15 54.2C57.15 53.92 57.17 53.81 56.75 52.79C57.27 52.64 57.75 52.41 58.32 52.71C58.5 52.81 58.82 52.69 59.04 52.6C59.41 52.45 59.76 52.22 60.12 52.04C60.43 51.88 60.78 51.77 61.07 51.58C61.46 51.32 61.72 51.01 61.44 50.44C61.19 49.94 61.31 49.76 61.85 49.63C62.11 49.57 62.37 49.57 62.64 49.54C63.08 49.48 63.54 49.5 63.94 49.33C65.03 48.87 65.63 48.5 64.96 47.24C64.95 47.21 64.96 47.17 64.96 47.06C65.36 46.81 65.79 46.52 66.23 46.25C67.08 45.72 67.28 44.53 66.59 43.75C66.74 43.61 66.87 43.44 67.04 43.33C67.55 43 67.84 42.49 68 41.93C68.09 41.63 68.07 41.2 67.92 40.95L67.9 41ZM47.95 35.19C48.24 34.69 48.49 34.14 48.84 33.67C49.22 33.17 49.7 32.76 50.15 32.32C50.37 32.1 50.62 32.14 50.79 32.38C51.02 32.7 51.21 33.06 51.42 33.39C51.53 33.57 51.67 33.74 51.79 33.91C51.95 33.77 52.18 33.66 52.27 33.48C52.84 32.34 53.66 31.85 54.89 31.93C55.21 31.95 55.33 32.08 55.34 32.4C55.35 32.73 55.37 33.07 55.39 33.4C55.42 33.85 55.66 33.99 56.04 33.83C56.38 33.69 56.7 33.5 57.03 33.32C57.78 32.91 58.57 32.72 59.43 32.81C59.77 32.84 59.91 32.97 59.88 33.32C59.85 33.6 59.82 33.88 59.86 34.15C59.89 34.39 60.02 34.62 60.15 34.99C60.92 34.01 61.81 34.09 62.71 34.23C63.15 34.29 63.35 34.53 63.29 35.03C63.24 35.39 63.24 35.77 63.28 36.14C63.33 36.66 63.5 36.72 63.99 36.6C64.21 36.54 64.5 36.6 64.71 36.71C65.01 36.86 65.28 37.1 65.6 37.33C64.59 37.5 63.67 37.66 62.71 37.82C63.13 37.14 63.97 37.35 64.56 36.94C63.98 36.63 62.84 36.93 62.33 37.43C61.75 38 61.15 38.54 60.56 39.1C60.52 39.05 60.48 39.01 60.44 38.96C61.14 38.29 61.85 37.62 62.57 36.93C62.2 36.63 61.95 36.85 61.75 37.07C60.91 38.01 60.09 38.96 59.26 39.91C59.18 40 59.07 40.07 58.98 40.15C58.94 40.12 58.89 40.08 58.85 40.05C59.34 39.31 59.83 38.57 60.32 37.82C60.28 37.79 60.23 37.76 60.19 37.73C59.21 38.28 58.87 39.4 58.23 40.26C58.49 39.4 58.92 38.66 59.47 37.99C60.01 37.34 60.53 36.66 61.07 35.98C60.94 36.01 60.79 36.05 60.64 36.09C60.62 36.06 60.6 36.03 60.58 36C61 35.71 61.43 35.41 61.85 35.12C61.83 35.06 61.81 34.99 61.79 34.93C61.6 34.97 61.38 34.97 61.23 35.07C59.39 36.42 57.74 37.96 56.85 40.21C56.82 40.28 56.8 40.36 56.75 40.4C56.56 40.55 56.35 40.68 56.15 40.81C56.18 40.59 56.23 40.38 56.24 40.16C56.25 39.89 56.67 39.62 56.26 39.34C56.14 39.56 55.98 39.78 55.9 40.02C55.81 40.31 55.86 40.67 55.72 40.92C55.58 41.18 55.28 41.34 55.04 41.54C54.98 41.5 54.93 41.46 54.87 41.42C54.96 41.06 55.09 40.71 55.14 40.34C55.18 40.02 55.62 39.7 55.12 39.22C54.94 39.81 54.78 40.31 54.64 40.81C54.49 41.34 54.41 41.91 53.58 42.05C53.79 41.34 53.99 40.73 54.15 40.1C54.21 39.85 54.19 39.58 54.21 39.32C53.77 39.31 53.92 39.72 53.85 39.94C53.64 40.57 53.5 41.22 53.32 41.86C53.26 42.08 53.15 42.3 53.06 42.51C52.99 42.49 52.92 42.46 52.86 42.44C53.04 41.61 53.21 40.77 53.41 39.94C53.6 39.17 53.99 38.6 54.65 38.1C55.81 37.23 56.82 36.17 57.56 34.86C57.67 34.67 57.71 34.43 57.79 34.21C57.74 34.17 57.69 34.12 57.64 34.08C57.5 34.21 57.32 34.32 57.21 34.48C56.47 35.48 55.76 36.51 55.01 37.5C54.83 37.74 54.56 37.91 54.24 38.2C54.19 37.33 54.99 36.85 54.71 36.03C54.03 36.89 54.01 38.08 53.28 38.82C53.23 38.79 53.18 38.76 53.14 38.74C53.82 37.1 54.5 35.46 55.18 33.81C55.14 33.77 55.1 33.73 55.06 33.69C54.95 33.81 54.8 33.92 54.73 34.07C54.2 35.25 53.68 36.45 53.16 37.64C53.13 37.7 53.08 37.75 53.03 37.81C52.98 37.79 52.94 37.76 52.89 37.74C53.08 37.26 53.27 36.78 53.47 36.3C53.68 35.79 53.91 35.29 54.09 34.78C54.27 34.28 54.45 33.76 54.23 33.06C54.09 33.37 54 33.54 53.94 33.72C53.65 34.55 53.38 35.39 53.07 36.21C52.47 37.78 52.34 39.44 52.24 41.11C52.21 41.66 52.1 42.21 52.01 42.76C51.99 42.89 51.91 43.01 51.86 43.13C51.8 43.12 51.73 43.11 51.67 43.09C51.72 42.7 51.77 42.31 51.82 41.92C51.28 42.18 51.24 42.65 51.2 43.14C51.18 43.34 51.07 43.54 50.99 43.74C50.92 43.72 50.84 43.69 50.77 43.67C50.92 42.9 51.07 42.14 51.22 41.37C51.14 41.35 51.05 41.32 50.97 41.3L50.1 44.16C50.1 44.16 50.01 44.14 49.97 44.13C49.99 43.93 50 43.72 50.03 43.52C50.2 42.31 50.37 41.1 50.53 39.89C50.55 39.73 50.57 39.55 50.53 39.39C50.5 39.26 50.39 39.15 50.31 39.03C50.25 39.16 50.14 39.28 50.12 39.41C49.92 40.89 49.75 42.38 49.54 43.86C49.5 44.17 49.3 44.45 49.17 44.74C49.13 44.72 49.08 44.71 49.04 44.69C49.16 44.11 49.32 43.54 49.39 42.96C49.57 41.55 49.7 40.13 49.87 38.72C49.98 37.83 50.15 36.94 50.29 36.05C50.33 35.79 50.37 35.53 50.3 35.25C49.78 36.53 49.56 37.89 49.34 39.31C49.06 38.44 49.13 37.39 49.44 36.64C49.64 36.17 49.76 35.66 49.93 35.17C50.12 34.61 50.32 34.07 50.5 33.51C50.54 33.37 50.48 33.19 50.47 33.03C50.35 33.13 50.15 33.21 50.11 33.34C49.83 34.19 49.59 35.06 49.33 35.92C49.15 36.5 48.94 37.07 48.79 37.65C48.71 37.95 48.69 38.28 48.74 38.59C49.01 40.31 48.84 41.99 48.37 43.65C48.31 43.86 48.11 44.02 48.03 44.22C47.88 44.58 47.77 44.95 47.65 45.32C47.54 45.66 47.44 46 47.34 46.35C47.26 46.33 47.18 46.31 47.1 46.28C47.16 45.96 47.23 45.63 47.27 45.31C47.32 44.91 47.36 44.5 47.37 44.09C47.37 43.96 47.26 43.84 47.19 43.71C47.12 43.82 47.02 43.92 47 44.04C46.88 44.64 46.79 45.25 46.59 45.85V40.15C46.52 40.13 46.45 40.11 46.38 40.08C46.32 40.23 46.2 40.38 46.21 40.53C46.21 41.18 46.3 41.83 46.28 42.47C46.23 43.86 46.15 45.24 46.04 46.63C45.99 47.24 45.64 47.66 45 47.98C45.16 47.6 45.27 47.29 45.41 47C45.91 46.05 45.97 45.02 45.91 43.98C45.82 42.28 45.67 40.58 45.57 38.88C45.49 37.57 46.06 36.4 46.36 35.17C46.38 35.11 46.44 35.06 46.48 35.01C46.53 35.02 46.57 35.03 46.62 35.04C46.37 36.45 45.88 37.83 46.01 39.28C46.07 39.28 46.12 39.3 46.18 39.31C46.5 37.64 46.82 35.97 47.15 34.27C46.42 34.25 46.01 34.64 45.84 35.34C45.45 36.98 45.1 38.62 45.2 40.33C45.2 40.47 45.18 40.61 45.17 40.75C45.12 40.76 45.07 40.78 45.02 40.79C44.84 40.23 44.58 39.69 44.49 39.11C44.23 37.46 44.36 35.85 45.3 34.42C45.57 34.02 45.83 33.61 46.36 33.5C47.12 33.34 47.51 33.66 47.44 34.47C47.41 34.83 47.44 35.1 47.87 35.2L47.95 35.19ZM57.55 40.53C57.55 40.53 57.43 40.53 57.25 40.53C57.9 39.23 58.45 37.98 59.51 37.11C58.86 38.25 58.21 39.39 57.55 40.52V40.53ZM54.31 43.57C54.31 43.64 54.29 43.72 54.28 43.79H53.22C53.22 43.79 53.22 43.7 53.22 43.66C53.59 43.63 53.95 43.6 54.32 43.58L54.31 43.57ZM51.6 48.36C52.06 48.56 52.54 48.73 53.01 48.91C53 48.97 52.98 49.04 52.97 49.1C50.96 48.42 49 47.47 46.8 47.67C46.8 47.6 46.78 47.54 46.77 47.47C46.93 47.38 47.11 47.2 47.26 47.22C48.74 47.43 50.2 47.76 51.6 48.36ZM42.99 45.39C42.66 47.06 42.62 48.8 42.08 50.41C42.04 50.4 42 50.39 41.95 50.38C42.12 49.26 42.38 48.15 42.44 47.02C42.5 45.9 42.37 44.77 42.3 43.65C42.26 42.96 42.19 42.26 42.07 41.58C42.04 41.38 41.81 41.21 41.67 41.02C41.6 41.2 41.46 41.38 41.47 41.56C41.47 41.85 41.56 42.14 41.63 42.43C42.37 45.09 42.35 47.72 41.41 50.32C41.36 50.45 41.28 50.56 41.21 50.68C41.17 50.67 41.14 50.65 41.1 50.64C41.22 50.19 41.33 49.74 41.46 49.29C42.14 46.97 41.93 44.68 41.2 42.42C41.03 41.9 40.8 41.39 40.64 40.87C40.54 40.52 40.52 40.15 40.48 39.79C40.48 39.74 40.53 39.65 40.51 39.63C39.95 39.05 40.32 38.21 39.97 37.57C40.34 37.33 40.61 37.57 41.32 38.89C41.43 38.57 41.54 38.38 41.55 38.18C41.65 36.94 41.93 35.78 42.79 34.84C43.02 34.59 43.14 34.57 43.38 34.8C43.85 35.24 44.08 35.75 44.12 36.44C44.19 37.71 44.35 38.98 44.51 40.24C44.55 40.57 44.72 40.89 44.83 41.21C44.78 41.23 44.73 41.26 44.68 41.28C44.48 40.82 44.27 40.37 44.08 39.91C43.99 39.69 43.96 39.44 43.85 39.24C43.74 39.04 43.55 38.89 43.39 38.72C43.33 38.75 43.28 38.78 43.22 38.82C43.22 38.01 43.23 37.2 43.21 36.39C43.21 36.21 43.07 36.04 42.99 35.86C42.93 36.03 42.81 36.2 42.82 36.37C42.87 37.41 42.92 38.44 43.02 39.48C43.14 40.79 43.94 41.7 44.81 42.49C45.31 42.95 45.59 43.42 45.59 44.09C45.6 45.38 45.27 46.58 44.66 47.68C44.36 48.21 44.03 48.73 43.65 49.2C43.43 49.46 43.07 49.58 42.67 49.83C42.82 48.26 43.26 46.85 42.98 45.39H42.99ZM42 52.35C41.95 52.38 41.89 52.4 41.84 52.43C41.66 52.31 41.48 52.19 41.3 52.07V51.9C41.51 51.9 41.71 51.85 41.88 51.92C41.96 51.95 41.96 52.2 42 52.35ZM40.03 51.29C40.14 50.76 40.23 50.37 40.31 49.97C40.22 49.94 40.13 49.91 40.04 49.88C39.9 50.21 39.72 50.53 39.64 50.87C39.56 51.24 39.57 51.63 39.03 51.72C39.33 50.63 39.61 49.62 39.88 48.61C39.82 48.59 39.77 48.57 39.71 48.56C39.27 49.74 38.83 50.92 38.34 52.24C38.29 52.01 38.22 51.87 38.24 51.75C38.33 51.32 38.46 50.9 38.55 50.47C38.76 49.5 38.98 48.54 39.14 47.56C39.25 46.9 39.27 46.23 39.3 45.57C39.3 45.39 39.19 45.2 39.13 45.02C39.05 45.21 38.92 45.4 38.91 45.59C38.88 46.13 38.9 46.68 38.9 47.22C38.85 47.22 38.79 47.23 38.74 47.24C38.7 46.93 38.67 46.61 38.62 46.3C38.49 45.45 38.35 44.59 38.22 43.74C38.15 43.28 38.12 42.82 38.04 42.37C38.02 42.26 37.9 42.17 37.82 42.07C37.76 42.17 37.65 42.27 37.66 42.36C37.7 42.82 37.71 43.29 37.85 43.72C38.37 45.34 38.47 46.99 38.12 48.65C37.87 49.87 37.52 51.07 37.21 52.27C37.11 52.65 36.87 52.79 35.91 53.08C36.54 51.99 35.89 50.93 35.94 49.83C36.36 49.76 36.46 49.48 36.38 49.05C36.28 48.51 36.19 47.96 36.16 47.41C36.13 46.94 36.16 46.46 36.24 46C36.33 45.51 36.68 45.49 37.06 45.67C37.26 45.76 37.46 45.84 37.65 45.93C37.7 45.89 37.75 45.85 37.8 45.81C37.69 45.4 37.62 44.97 37.45 44.59C37.09 43.77 37.26 42.94 37.37 42.14C37.47 41.47 37.79 41.38 38.41 41.65C38.54 41.7 38.67 41.74 38.85 41.8C39.08 40.52 38.8 39.16 39.7 37.96C39.83 38.78 39.88 39.49 40.07 40.17C40.34 41.14 40.77 42.07 41.03 43.04C41.71 45.59 41.78 48.11 40.61 50.56C40.53 50.72 40.52 50.93 40.42 51.07C40.35 51.17 40.19 51.21 40.01 51.31L40.03 51.29ZM40.2 52.03L38.76 52.65L38.65 52.4C39.13 52.2 39.61 51.99 40.1 51.79C40.13 51.87 40.16 51.95 40.2 52.03ZM37.69 51.76C37.87 51.09 38.05 50.41 38.24 49.7C38.6 49.88 38.41 50.9 37.69 51.76ZM37.79 53.16C37.34 53.33 36.9 53.51 36.45 53.68L36.39 53.47C36.83 53.3 37.27 53.12 37.72 52.95L37.79 53.16ZM35.24 49.94C35.54 50.61 35.73 51.26 35.65 52.01C35.53 53.17 35.55 53.19 34.43 53.49C34.7 52.31 34.97 51.13 35.24 49.94ZM34.35 48.94C34.29 48.9 34.23 48.87 34.17 48.83C34.42 48.4 34.67 47.96 34.92 47.53C34.98 47.57 35.04 47.61 35.1 47.65C34.85 48.08 34.59 48.51 34.34 48.95L34.35 48.94ZM34.23 47.73C34.26 46.2 35.33 45.38 36.11 44.36C36.16 44.4 36.21 44.44 36.26 44.48C35.58 45.56 34.9 46.65 34.22 47.73H34.23ZM36.13 43.38C36.13 43.38 36.2 43.47 36.24 43.51C35.73 44.08 35.21 44.66 34.7 45.23C34.67 45.21 34.65 45.2 34.62 45.18C34.84 44.73 35.05 44.29 35.27 43.84C35.22 43.81 35.17 43.78 35.12 43.76C34.96 43.95 34.81 44.15 34.65 44.34C35.06 43.12 36.02 42.42 36.8 41.55C36.84 41.58 36.87 41.61 36.91 41.64C36.45 42.24 36 42.85 35.44 43.58C35.78 43.48 35.96 43.43 36.14 43.38H36.13ZM34.34 43.4C34.2 42.77 36.2 40.69 37.15 40.55C36.21 41.5 35.27 42.45 34.34 43.4ZM37.32 40.28C37.63 40.04 37.93 39.81 38.24 39.57C38.29 39.63 38.33 39.68 38.38 39.74C38.07 39.98 37.76 40.22 37.45 40.46C37.41 40.4 37.36 40.34 37.32 40.28ZM46.72 32.53C46.92 32.32 47.09 32.07 47.35 31.74C47.37 32.83 46.59 33.15 45.34 33C45.77 32.53 46.16 32.08 46.56 31.64C46.6 31.67 46.65 31.71 46.69 31.74C46.59 31.9 46.46 32.05 46.4 32.23C46.34 32.37 46.35 32.55 46.33 32.71C46.46 32.65 46.62 32.63 46.71 32.53H46.72ZM46.58 26.4C46.46 26.72 46.35 27.04 46.23 27.37C46.13 27.64 45.88 27.97 46.23 28.14C46.39 28.22 46.71 27.96 46.95 27.84C47.02 27.81 47.06 27.71 47.12 27.64C47.75 28.53 47.72 29.76 46.93 30.68C45.96 31.82 44.9 32.87 43.86 33.95C43.79 34.03 43.59 33.98 43.45 33.99C43.24 34.01 42.98 33.95 42.84 34.06C41.21 35.48 39.46 36.69 37.63 37.79C37.58 37.82 37.56 37.9 37.53 37.96C37.55 37.98 37.58 38.01 37.6 38.03C38.18 37.72 38.77 37.4 39.35 37.09C39.39 37.14 39.42 37.19 39.46 37.24C38.9 37.71 38.39 38.28 37.77 38.62C36.54 39.3 35.49 40.2 34.54 41.24C34.46 41.33 34.36 41.39 34.27 41.46C34.22 41.43 34.18 41.4 34.13 41.37C34.25 41.11 34.3 40.77 34.49 40.6C35.2 39.93 35.96 39.31 36.7 38.66C36.8 38.58 36.86 38.45 36.88 38.28C35.8 38.53 35.19 39.52 34.33 40.11L34.17 40.01C34.38 39.55 34.54 39.05 34.83 38.65C35.32 37.98 35.89 37.38 36.41 36.74C36.6 36.51 36.75 36.24 36.95 35.93C37.29 36.09 37.54 35.77 37.86 35.5C38.75 34.75 39.68 34.06 40.58 33.32C40.93 33.04 41.23 32.7 41.57 32.38C41.58 32.41 41.61 32.5 41.67 32.67C43.74 30.94 45.22 28.75 46.44 26.35L46.57 26.41L46.58 26.4ZM33.02 15.63C33.33 15.49 33.63 15.25 33.8 14.97C33.81 14.97 33.83 14.97 33.84 14.97C34.08 14.68 34.32 14.39 34.64 14.01C34.79 14.66 34.68 15.17 34.55 15.7C34.38 16.39 34.26 17.09 34.14 17.79C34.03 18.41 33.88 19.03 33.89 19.65C33.92 21.15 33.98 22.64 34.12 24.13C34.23 25.36 34.47 26.57 34.67 27.9C33.96 27.42 34.34 26.41 33.56 26.1C33.81 26.97 34.06 27.84 34.31 28.71C34.26 28.73 34.2 28.74 34.15 28.76C33.92 28 33.69 27.23 33.44 26.48C33.18 25.69 32.94 24.91 32.38 24.25C32.11 23.92 31.98 23.38 31.95 22.92C31.86 21.59 31.78 20.25 31.83 18.92C31.86 18.2 32.18 17.5 32.36 16.79C32.44 16.49 32.5 16.18 32.57 15.88C32.52 15.9 32.82 15.73 33.02 15.64V15.63ZM45.84 24.89C45.94 24.62 46.18 24.41 46.44 24.24C46.07 26.65 45.03 28.67 43.39 30.33C43.94 29.36 44.56 28.41 45.03 27.4C45.39 26.61 45.55 25.72 45.84 24.89ZM43.45 17.68C44.01 18.36 44.29 19.2 44.07 20.19C44 20.5 43.85 20.79 43.84 21.1C43.84 21.31 44.01 21.52 44.11 21.74C44.26 21.65 44.44 21.59 44.54 21.46C44.88 21.01 45.26 20.99 45.45 21.51C45.77 22.39 45.97 23.33 45.63 24.24C45.03 25.85 44.42 27.47 43.67 29.01C42.83 30.73 41.59 32.13 40.05 33.2C39.28 33.74 38.42 34.15 37.69 34.75C36.9 35.41 36.21 36.21 35.49 36.97C35.18 37.3 34.91 37.67 34.59 38C35.03 36.1 36.3 34.73 37.38 33.25C37.33 33.2 37.28 33.16 37.23 33.11C36.58 33.8 35.93 34.49 35.28 35.17C35.25 35.15 35.22 35.13 35.19 35.1C35.77 34.22 36.36 33.35 36.94 32.47C36.88 32.42 36.81 32.37 36.75 32.32C36.12 33.09 35.49 33.86 34.86 34.64C36.1 31.74 38.68 30 40.4 27.52C40.37 27.48 40.34 27.43 40.31 27.39C40.17 27.46 40.03 27.51 39.9 27.59C39.78 27.67 39.68 27.77 39.52 27.81C39.71 27.32 40.14 27.16 40.55 26.94C41.29 26.54 42.07 26.17 42.72 25.63C43.25 25.19 43.61 24.52 43.98 23.88C42.87 24.9 41.85 26.04 40.32 26.43C40.47 26.21 40.62 26 40.81 25.74C40.88 25.85 40.93 25.93 41.01 26.08C41.19 25.9 41.41 25.75 41.52 25.55C42.05 24.57 42.58 23.59 43.04 22.57C43.32 21.96 43.47 21.28 43.66 20.63C43.69 20.51 43.58 20.35 43.54 20.2C43.43 20.28 43.28 20.33 43.23 20.44C43.11 20.72 43.05 21.04 42.94 21.32C42.76 21.76 42.56 22.19 42.36 22.62C42.3 22.59 42.24 22.56 42.18 22.54C42.61 20.92 43.03 19.3 43.45 17.69V17.68ZM38.06 29.51C38.46 29.01 38.87 28.5 39.27 28C39.32 28.04 39.37 28.07 39.43 28.11C39.02 28.61 38.6 29.11 38.19 29.62L38.07 29.52L38.06 29.51ZM41.09 25.21C41.4 24.45 41.66 23.82 41.94 23.15C42.24 23.8 41.92 24.63 41.09 25.21ZM40.86 15.9C40.84 15.48 40.97 15.05 41.13 14.64C41.47 15.78 41.1 16.89 41.04 18.01L41.21 18.04C41.42 17.01 41.63 15.98 41.86 14.88C42.36 15.67 42.56 16.45 42.37 17.33C42.23 17.99 42.05 18.65 41.97 19.32C41.78 20.87 41.18 22.27 40.57 23.67C40.52 23.8 40.48 23.93 40.54 24.13C40.65 23.96 40.79 23.81 40.88 23.63C41.68 22.11 42.22 20.49 42.44 18.76C42.47 18.53 42.59 18.31 42.67 18.08C42.74 18.1 42.81 18.11 42.89 18.13C42.84 18.62 42.87 19.14 42.72 19.6C42.02 21.73 41.44 23.93 40.23 25.82C38.81 28.02 37.21 30.08 35.38 31.93C35.16 32.15 34.98 32.42 34.73 32.73C34.63 32.07 34.77 31.59 35.12 31.11C35.69 30.33 36.19 29.48 36.71 28.66L36.63 28.52C36.43 28.63 36.24 28.74 36.04 28.86C36.01 28.84 35.99 28.81 35.96 28.79C36.29 28.29 36.64 27.79 36.95 27.28C37.03 27.15 37.03 26.97 37.06 26.82C36.93 26.89 36.75 26.92 36.68 27.03C36.31 27.54 35.98 28.08 35.57 28.69C35.47 27.87 35.81 27.29 36.18 26.75C36.88 25.73 37.67 24.79 38.32 23.75C39.81 21.38 40.98 18.87 40.87 15.91L40.86 15.9ZM34.81 31C34.91 30.61 35 30.23 35.1 29.84C35.11 29.8 35.22 29.76 35.26 29.77C35.31 29.79 35.38 29.88 35.37 29.92C35.25 30.3 35.11 30.67 34.97 31.05C34.91 31.03 34.86 31.02 34.8 31H34.81ZM36.26 25.68C36.89 24.76 37.53 23.83 38.16 22.91C38.22 22.94 38.27 22.98 38.33 23.01C37.69 23.94 37.05 24.86 36.41 25.79L36.26 25.68ZM40.08 18.63C40.16 18.03 40.23 17.42 40.31 16.82C40.58 17.47 40.46 18.07 40.08 18.63ZM39.4 13.56C39.45 13.57 39.51 13.59 39.56 13.6C39.35 14.6 39.19 15.61 38.92 16.58C38.65 17.56 38.26 18.5 37.98 19.48C38.91 17.85 39.46 16.07 39.9 14.24C39.94 14.24 39.99 14.24 40.03 14.24C40.08 14.57 40.19 14.91 40.16 15.24C40.08 16.1 39.95 16.95 39.8 17.79C39.44 19.9 38.5 21.7 37.16 23.3C36.56 24.01 36.05 24.8 35.44 25.63C35.3 24.84 35.77 24.35 36.04 23.79C36.51 22.82 36.99 21.86 37.46 20.89C37.52 20.77 37.5 20.61 37.51 20.47C37.44 20.44 37.38 20.42 37.31 20.39C36.94 21.06 36.57 21.72 36.2 22.39C36.48 21.14 36.81 19.95 37.49 18.85C37.95 18.1 38.2 17.21 38.5 16.36C38.83 15.43 39.09 14.49 39.39 13.55L39.4 13.56ZM38.79 13.91C38.59 15.49 38.06 16.96 37.52 18.43C37.46 18.41 37.41 18.4 37.35 18.38C37.77 16.88 38.19 15.37 38.62 13.87L38.79 13.91ZM38.48 13.24C38.16 14.43 37.8 15.6 37.44 16.78C36.69 19.2 35.93 21.62 35.19 24.04C35.03 24.55 34.97 25.09 34.8 25.61C34.29 23.57 34.15 21.52 34.34 19.45C34.5 17.79 34.73 16.15 34.94 14.5C34.96 14.32 35.01 14.19 35.09 14.1C35.11 14.08 35.13 14.06 35.14 14.05C35.28 13.93 36.4 13.44 36.82 13.28C37.32 13.09 38.2 12.08 38.31 11.97C38.42 11.96 38.53 11.94 38.65 11.93C38.6 12.31 38.6 12.81 38.48 13.26V13.24ZM29.73 18.85C29.9 20.59 30.07 22.32 30.23 24.06C30.31 24.06 30.39 24.06 30.48 24.06C30.48 23.79 30.49 23.52 30.48 23.25C30.43 22.18 30.36 21.1 30.34 20.03C30.34 19.83 30.52 19.64 30.59 19.43C30.67 19.18 30.78 18.93 30.78 18.67C30.78 17.61 31.24 16.83 31.92 16.14C31.98 16.16 32.03 16.17 32.09 16.19C31.96 16.9 31.8 17.61 31.72 18.33C31.62 19.26 31.57 20.21 31.53 21.15C31.45 23.09 32.03 24.84 32.82 26.58C33.43 27.93 33.88 29.36 33.91 30.9C33.91 31.24 34.02 31.57 34.08 31.91C34.04 31.91 33.99 31.93 33.95 31.93C33.79 31.39 33.64 30.86 33.48 30.32C33.4 30.35 33.33 30.38 33.25 30.41C33.39 31.98 34.12 33.48 33.82 35.19C33.52 34.31 33.2 33.52 32.97 32.7C32.49 30.98 31.68 29.42 30.81 27.89C30.35 27.08 30.04 26.23 30.08 25.27C30.09 24.98 30 24.69 29.93 24.41C29.51 22.58 29.42 20.73 29.75 18.85H29.73ZM29.66 49.35C29.21 48.48 28.86 47.54 28.59 46.59C28.37 45.83 28.34 45.02 28.23 44.23L28.52 44.14C28.71 44.7 28.94 45.25 29.08 45.82C29.19 46.25 29.19 46.7 29.23 47.14C29.28 47.7 29.54 48.11 30.01 48.39C30.22 48.22 30.43 48.05 30.72 47.82C30.87 48.1 31.02 48.34 31.12 48.6C31.64 49.86 32.24 51.05 33.07 52.13C33.33 52.47 33.84 52.83 33.54 53.46C33.7 53.55 33.83 53.62 33.97 53.69C33.92 53.91 33.88 54.1 33.81 54.43C33.24 53.88 32.73 53.39 32.22 52.9C32.13 52.81 32.08 52.67 31.98 52.61C30.72 51.9 30.3 50.53 29.68 49.33L29.66 49.35ZM30.54 51.89C29.98 51.8 29.64 51.47 29.38 51.07C28.64 49.91 28.31 48.58 27.96 47.25C28.82 48.79 29.66 50.31 30.54 51.89ZM26.28 38.83C27.92 40.55 29.17 42.55 29.95 44.86C28.73 42.85 27.5 40.84 26.28 38.83ZM32.22 48.05C31.71 46.23 31.19 44.41 30.68 42.59C31.59 44.29 31.95 46.16 32.36 48.01C32.31 48.02 32.27 48.04 32.22 48.05ZM28.3 24.42C28.16 23.85 28.04 23.37 27.91 22.89C27.95 22.87 27.99 22.85 28.04 22.83C28.1 22.89 28.16 22.95 28.22 23C28.33 23.1 28.45 23.19 28.57 23.29C28.64 23.1 28.81 22.89 28.78 22.74C28.66 22.24 28.46 21.77 28.31 21.28C28.06 20.46 28.44 19.87 28.95 19.39C29.13 20.64 29.54 21.91 29.41 23.12C29.27 24.38 30.17 25.47 29.62 26.68C28.61 26.52 27.49 24.65 27.43 23.3C27.88 23.49 27.57 24.29 28.3 24.42ZM25.43 26.59C25.52 26.65 25.65 26.69 25.7 26.77C26.11 27.47 26.5 28.19 26.92 28.9C27 29.03 27.15 29.11 27.26 29.22C27.3 29.17 27.34 29.13 27.38 29.08C27.02 28.38 26.66 27.67 26.3 26.97C26.87 26.59 26.89 26.5 26.66 25.74C26.44 24.99 26.38 24.23 26.92 23.48C26.99 23.72 27.05 23.87 27.08 24.03C27.32 25.41 28.14 26.3 29.25 26.98C29.57 27.17 29.86 27.47 30.07 27.78C31.24 29.53 32.14 31.43 32.74 33.48C32.97 34.26 33.13 35.07 33.32 35.87C33.27 35.89 33.22 35.91 33.17 35.92C32.97 35.4 32.77 34.88 32.57 34.36C32.26 33.56 31.96 32.75 31.65 31.95C31.54 31.66 31.42 31.36 31.27 31.1C31.19 30.96 31.01 30.87 30.88 30.76C30.88 30.92 30.81 31.1 30.86 31.24C31 31.62 31.2 31.97 31.37 32.34C31.76 33.23 32.14 34.12 32.5 35.02C32.56 35.17 32.44 35.39 32.4 35.57C32.38 35.7 32.32 35.85 32.36 35.97C32.6 36.76 32.86 37.54 33.11 38.33C33.41 39.28 33.73 40.23 33.29 41.43C33.15 41.04 33.04 40.78 32.98 40.51C32.6 38.81 32.14 37.12 31.18 35.68C30.41 34.52 29.54 33.42 28.65 32.36C27.79 31.33 27.22 30.14 26.6 28.96C26.25 28.28 25.84 27.63 25.46 26.97C25.41 26.88 25.38 26.78 25.43 26.59ZM24.92 27.24C24.97 27.23 25.03 27.21 25.08 27.2C25.39 27.69 25.76 28.15 25.99 28.69C27.1 31.25 28.88 33.3 30.49 35.49C31.21 36.47 31.59 37.72 32.01 38.89C31.83 38.73 31.66 38.56 31.48 38.4C31.51 38.64 31.51 38.9 31.58 39.13C31.95 40.34 32.34 41.55 32.72 42.76C32.73 42.8 32.69 42.86 32.53 43.04C32.51 42.95 32.52 42.83 32.46 42.77C32.38 42.68 32.26 42.64 32.16 42.57C32.17 42.71 32.15 42.86 32.2 42.98C32.53 43.84 32.88 44.69 33.22 45.54L33.03 45.64C32.87 45.34 32.7 45.04 32.57 44.73C31.82 42.95 31.08 41.17 30.33 39.4C30.29 39.32 30.25 39.18 30.19 39.17C29.41 39.06 29.31 38.26 28.89 37.79C28.33 37.16 27.81 36.49 27.28 35.83C27.21 35.74 27.15 35.62 27.09 35.52C27.17 35.51 27.25 35.49 27.38 35.47C26.95 34.57 26.52 33.68 26.09 32.78C26.4 32.73 26.46 33.46 26.79 32.99C26.52 32.54 26.26 32.11 26.01 31.68C25.79 31.3 25.59 30.91 25.35 30.55C25.03 30.08 24.88 29.58 24.93 29C24.97 28.42 24.93 27.83 24.93 27.25L24.92 27.24ZM27.05 35.49C26.65 34.99 26.19 34.52 25.86 33.97C25.53 33.4 25.34 32.74 25.05 32.04C25.15 32.16 25.22 32.23 25.28 32.31C25.35 32.41 25.42 32.52 25.48 32.63C25.97 33.46 26.46 34.28 26.94 35.11C27 35.22 27.01 35.36 27.04 35.49H27.05ZM24.15 32.86C24.05 32.57 24.13 32.21 24.13 31.88C24.22 31.86 24.31 31.84 24.41 31.82C24.76 32.56 25.04 33.36 25.48 34.04C26.13 35.04 26.88 35.98 27.63 36.9C28.92 38.49 29.92 40.21 30.34 41.72C29.39 41.75 29.71 40.44 28.78 40.26C29.1 40.87 29.27 41.44 29.63 41.83C30.2 42.47 30.45 43.23 30.68 44.03C31.11 45.53 31.57 47.02 32.02 48.51C31.96 48.54 31.9 48.58 31.83 48.61C31.6 47.98 31.3 47.37 31.15 46.72C30.61 44.39 29.44 42.38 28.25 40.38C27.86 39.73 27.28 39.22 26.78 38.65C26.67 38.52 26.57 38.38 26.54 38.18C26.77 38.37 27.01 38.56 27.24 38.75C27.28 38.69 27.32 38.63 27.37 38.58C27 38.16 26.64 37.75 26.23 37.28C26.15 37.5 26.12 37.59 26.08 37.71C25.67 37.28 25.27 36.86 24.87 36.44C25.67 35.92 25.63 35.95 25.14 35.07C24.75 34.38 24.45 33.62 24.17 32.87L24.15 32.86ZM25.26 40.2C25.32 40.41 25.4 40.61 25.47 40.82C25.58 40.64 25.7 40.45 25.81 40.27C25.84 40.22 25.86 40.18 25.92 40.06C26.49 40.44 26.79 41 26.96 41.63C27.14 42.29 27.25 42.96 27.4 43.63C27.45 43.84 27.5 44.07 27.61 44.26C27.93 44.85 27.9 45.39 27.59 45.99C27.46 46.24 27.45 46.63 27.52 46.92C27.73 47.87 27.99 48.81 28.26 49.74C28.36 50.08 28.56 50.39 28.72 50.72C28.69 50.76 28.66 50.8 28.63 50.84C28.42 50.67 28.13 50.54 28 50.32C27.52 49.53 27.04 48.73 26.68 47.88C26.45 47.34 26.41 46.7 26.35 46.1C26.26 45.22 26.23 44.33 26.14 43.44C26.12 43.28 25.98 43.13 25.9 42.97C25.87 43.13 25.79 43.3 25.8 43.46C25.89 44.84 26 46.22 26.11 47.6C26.05 47.62 25.99 47.64 25.93 47.66C25.86 47.25 25.75 46.84 25.72 46.42C25.67 45.76 25.64 45.09 25.63 44.42C25.63 42.9 25.02 41.55 24.63 40.14C24.38 39.26 24.08 38.4 23.85 37.5C24.71 38.18 25.01 39.18 25.28 40.19L25.26 40.2ZM27.12 49.48C26.54 49.33 26.21 48.78 26.15 48.11C26.19 48.08 26.23 48.06 26.27 48.03C26.55 48.51 26.83 48.99 27.11 49.48H27.12ZM20.44 33.61C20.63 33.88 20.88 34.13 21.01 34.43C22.37 37.43 23.13 40.61 23.57 43.88C23.57 43.91 23.61 43.93 23.71 44.03C23.57 41.68 23.13 39.48 22.51 37.3C22.84 37.08 23.1 37.07 23.23 37.44C23.63 38.54 24.09 39.63 24.37 40.77C24.65 41.91 24.76 43.1 24.93 44.27C25.1 45.43 25.26 46.59 25.31 47.79C25 46.51 24.69 45.24 24.38 43.96C24.33 43.98 24.28 43.99 24.23 44.01C24.18 46.17 24.97 48.08 26.07 49.97C25.64 49.85 25.54 49.1 24.94 49.61C24.46 48.66 24.01 47.75 23.54 46.84C23.49 46.75 23.39 46.69 23.31 46.61C23.25 46.73 23.13 46.87 23.15 46.96C23.29 47.37 23.44 47.79 23.64 48.17C23.97 48.79 24.35 49.39 24.7 50L24.62 50.13C24.42 49.98 24.15 49.88 24.02 49.68C22.84 47.97 22.07 46.12 22.08 43.94C22.08 42.61 21.87 41.28 21.76 39.96C21.73 39.67 21.71 39.38 21.68 39.09C21.76 39.08 21.84 39.07 21.92 39.05C22.24 41.45 22.55 43.85 22.88 46.34C23.09 45.76 22.65 40.73 22.38 39.81C21.77 37.73 21.38 35.58 20.29 33.68C20.33 33.65 20.37 33.62 20.41 33.59L20.44 33.61ZM13.54 31.84C13.79 32.08 14.06 32.3 14.3 32.56C14.58 32.86 14.88 32.95 15.3 32.8C15.27 32.66 15.27 32.52 15.22 32.39C15.07 31.94 15.2 31.73 15.61 31.89C16.4 32.19 17.19 32.52 17.92 32.94C18.22 33.11 18.39 33.56 18.61 33.89C18.76 34.12 18.84 34.49 19.22 34.35C19.63 34.2 19.37 33.91 19.33 33.66C19.33 33.62 19.36 33.56 19.4 33.44C20.28 34.25 20.74 35.25 21.06 36.33C21.02 36.35 20.98 36.38 20.94 36.4C20.66 35.81 20.38 35.22 20.1 34.62C20.06 34.64 20.01 34.66 19.97 34.68C20.16 35.26 20.32 35.86 20.55 36.42C21.2 37.96 21.42 39.57 21.5 41.23C21.58 43.02 21.76 44.81 21.89 46.6C21.9 46.75 21.96 46.9 21.99 47.06C21.95 47.07 21.91 47.09 21.86 47.1C21.68 46.57 21.52 46.03 21.32 45.51C20.96 44.55 20.56 43.6 20.22 42.64C20 42.02 19.85 41.37 19.63 40.75C19.54 40.5 19.34 40.31 19.22 40.07C19.14 39.92 19.09 39.74 19.07 39.57C18.96 38.41 18.88 37.24 18.76 36.08C18.69 35.47 18.57 35.38 18.17 35.48C18.72 37.56 18.77 39.71 18.95 41.84C19.09 43.46 19.46 45 20.34 46.4C20.9 47.29 21.36 48.25 21.85 49.19C21.88 49.24 21.85 49.33 21.75 49.48C21.4 49.07 20.97 48.7 20.72 48.23C20.22 47.28 19.8 46.29 19.38 45.3C19.11 44.66 18.87 44 18.64 43.34C18.57 43.14 18.55 42.91 18.52 42.69C18.32 40.98 18.13 39.27 17.93 37.57C17.93 37.52 17.86 37.47 17.69 37.46C17.79 38.44 17.89 39.42 18 40.5C17.39 38.88 16.97 37.28 16.22 35.88C15.47 34.47 14.4 33.25 13.47 31.94L13.54 31.85V31.84ZM21.02 46.08C21.02 46.08 21.01 46.14 20.98 46.18C20.92 46.27 20.85 46.35 20.72 46.51C20.04 44.78 19.33 43.14 19.3 41.26C19.37 41.37 19.46 41.48 19.49 41.6C19.87 42.92 20.23 44.25 20.62 45.57C20.67 45.75 20.86 45.89 21.01 46.08H21.02ZM21.59 50.63C20.59 51.13 19.59 51.64 18.59 52.14C18.57 52.1 18.55 52.06 18.53 52.01C19.42 51.3 20.47 50.91 21.5 50.49C21.53 50.53 21.55 50.58 21.58 50.62L21.59 50.63ZM7.39 33.77C7.87 33.96 8.11 33.86 8.14 33.32C8.16 32.93 8.05 32.53 8 32.09C8.34 31.9 8.6 31.86 8.94 32.3C9.44 32.96 10.07 33.51 10.64 34.11C11.11 34.61 11.63 35.08 11.99 35.66C12.33 36.2 12.45 36.88 12.73 37.47C13.63 39.45 14.18 41.54 14.69 43.66C14.85 44.34 15.09 45.01 15.58 45.53C15.62 45.51 15.67 45.49 15.71 45.47C15.61 45.22 15.5 44.98 15.42 44.72C15.17 43.89 14.95 43.06 14.7 42.24C14.15 40.47 13.53 38.72 13.04 36.93C12.52 35.04 10.98 34.05 9.85 32.7C9.67 32.49 9.49 32.3 9.22 32C10 31.91 10.47 32.19 10.9 32.59C11.33 32.98 11.8 33.28 12.44 33.28V31.42L12.6 31.35C12.69 31.51 12.78 31.67 12.86 31.84C12.93 31.98 12.96 32.14 13.06 32.25C14.17 33.49 15.2 34.79 16.03 36.25C16.34 36.79 16.5 37.42 16.71 38.02C16.86 38.45 16.98 38.9 17.09 39.34C17.82 42.06 18.58 44.77 19.75 47.34C19.78 47.4 19.76 47.48 19.78 47.7C19.49 47.35 19.27 47.09 19.06 46.84C19 46.89 18.93 46.94 18.87 46.99C19.28 47.65 19.69 48.3 20.17 49.08C19.57 48.9 19.01 48.78 18.49 48.55C18.31 48.47 18.26 48.09 18.15 47.85C17.53 46.61 16.92 45.37 16.29 44.14C16.2 43.96 16.05 43.81 15.85 43.69C16.32 45.39 17.04 46.94 18.1 48.34C16.73 48.27 16.68 46.76 15.88 46.08C15.83 46.11 15.78 46.14 15.72 46.17C15.85 46.53 15.97 46.89 16.12 47.33C16 47.31 15.81 47.33 15.76 47.26C15.37 46.7 14.96 46.16 14.66 45.55C14.15 44.5 13.73 43.4 13.24 42.33C13.03 41.87 12.77 41.45 12.53 41.01C12.47 41.04 12.41 41.07 12.34 41.1C12.99 42.66 13.65 44.23 14.3 45.79C14.25 45.83 14.2 45.88 14.14 45.92C14.01 45.76 13.82 45.62 13.74 45.43C13.02 43.73 12.34 42 11.59 40.31C11.42 39.93 11.04 39.65 10.75 39.33C10.74 39.14 10.78 38.91 10.7 38.76C9.69 36.93 8.55 35.2 6.89 33.93C6.77 33.84 6.66 33.74 6.58 33.53C6.85 33.62 7.12 33.69 7.38 33.8L7.39 33.77ZM13.15 45.31C13.15 45.23 13.12 45.11 13.06 45.06C12.27 44.25 12.02 43.14 11.63 42.13C10.81 40.04 9.79 38.07 8.47 36.28C8.43 36.22 8.39 36.16 8.37 36.09C8.36 36.06 8.37 36.02 8.41 35.83C8.67 36.15 8.89 36.38 9.07 36.64C9.65 37.52 10.2 38.41 10.77 39.29C10.81 39.47 10.83 39.66 10.9 39.82C11.32 40.73 11.75 41.63 12.18 42.54C12.72 43.69 13.26 44.84 13.83 46.05C13.45 45.92 13.16 45.78 13.18 45.32L13.15 45.31ZM13.74 47.12C12.96 47.28 12.18 47.45 11.34 47.63C11.69 47.19 13.38 46.88 13.74 47.12ZM6.45 34.04C6.95 34.45 7.44 34.87 7.94 35.28C7.91 35.32 7.87 35.37 7.84 35.41C7.34 34.99 6.84 34.58 6.34 34.16C6.38 34.12 6.41 34.07 6.45 34.03V34.04ZM3.65 35C4.18 34.98 4.7 35.03 5.23 35.03C5.39 35.03 5.56 34.99 5.72 34.96C5.69 34.79 5.65 34.62 5.62 34.45C5.6 34.37 5.57 34.29 5.55 34.23C7.18 34.96 8.12 36.42 9.1 37.87C10.15 39.43 10.84 41.16 11.5 42.91C11.69 43.42 11.88 43.94 12.05 44.46C12.09 44.58 12.04 44.74 12.03 44.88C11.88 44.87 11.69 44.91 11.59 44.84C11.37 44.67 11.13 44.47 11.02 44.22C10.62 43.33 10.29 42.42 9.91 41.52C9.77 41.2 9.6 40.89 9.44 40.58C9.36 40.61 9.29 40.63 9.21 40.66C9.25 40.87 9.27 41.09 9.35 41.29C9.63 42.01 9.93 42.73 10.23 43.45C10.17 43.48 10.11 43.52 10.04 43.55C9.86 43.21 9.6 42.89 9.51 42.53C8.99 40.58 7.9 38.93 6.92 37.23C6.83 37.08 6.67 36.97 6.55 36.84C6.5 36.88 6.44 36.93 6.39 36.97L7.03 37.96C7.03 37.96 6.95 38.03 6.91 38.07C6.74 37.88 6.56 37.71 6.42 37.5C5.78 36.51 4.85 35.9 3.87 35.34C3.76 35.28 3.6 35.34 3.46 35.33C3.53 35.46 3.57 35.62 3.68 35.7C4.39 36.23 5.14 36.7 5.81 37.29C6.53 37.92 7.04 38.74 7.34 39.7C7.53 40.31 7.77 40.9 7.99 41.51C7.97 41.54 7.95 41.57 7.92 41.61C7.6 41.23 7.26 40.87 6.96 40.48C5.93 39.13 4.93 37.76 3.9 36.41C3.76 36.23 3.5 36.16 3.37 35.97C3.24 35.78 3.15 35.51 3.18 35.29C3.19 35.18 3.49 35.03 3.66 35.03L3.65 35ZM8.85 41.91C8.78 41.94 8.71 41.97 8.64 42C8.25 41.05 7.85 40.1 7.46 39.15C7.54 39.11 7.62 39.08 7.7 39.04C8.08 39.99 8.47 40.95 8.85 41.9V41.91ZM62.84 49.03C62.22 49.03 61.61 49.07 60.99 49.02C60.61 48.99 60.49 49.13 60.54 49.48C60.58 49.77 60.63 50.07 60.75 50.33C60.93 50.73 60.8 50.99 60.49 51.16C59.42 51.74 58.33 52.13 57.09 51.83C56.23 51.63 55.77 52.23 56.02 53.12C56.06 53.27 55.91 53.62 55.78 53.66C55.43 53.76 55.06 53.77 54.69 53.77C54.18 53.77 53.67 53.66 53.16 53.7C52.9 53.72 52.59 53.93 52.44 54.16C52.36 54.29 52.56 54.62 52.68 55.01C52.4 55.1 52.04 55.31 51.67 55.32C51.12 55.32 50.56 55.2 50.01 55.11C49.84 55.08 49.68 54.95 49.51 54.95C49.27 54.95 48.99 54.95 48.82 55.08C48.73 55.15 48.84 55.5 48.86 55.72C48.86 55.79 48.88 55.86 48.9 56C48.2 56.17 47.51 56.44 46.81 56.48C46.32 56.5 45.79 56.27 45.32 56.04C44.84 55.8 44.41 55.42 43.96 55.11C43.87 55.05 43.74 55.05 43.52 54.99C43.58 55.56 43.63 56.06 43.68 56.58C42.51 56.93 41.5 56.72 40.59 55.92C40.27 55.64 39.95 55.34 39.59 55.1C39.41 54.98 39.16 54.98 38.86 54.91C38.89 55.43 38.9 55.81 38.95 56.19C39 56.54 38.89 56.64 38.56 56.66C37.85 56.72 37.28 56.37 36.79 55.93C36.07 55.29 35.24 55.29 34.39 55.34C34.28 55.34 34.12 55.48 34.09 55.58C34.07 55.69 34.15 55.87 34.23 55.96C34.32 56.05 34.47 56.08 34.55 56.11C34.56 56.38 34.57 56.63 34.59 56.92C34.47 57 34.31 57.12 34.15 57.23C33.93 57.08 33.72 56.93 33.5 56.78C33.5 56.74 33.51 56.69 33.52 56.65C33.68 56.64 33.84 56.65 34 56.61C34.08 56.59 34.15 56.5 34.23 56.44C34.15 56.36 34.08 56.24 34 56.22C33.8 56.18 33.58 56.18 33.5 56.18C33.27 55.82 33.1 55.56 32.91 55.28H33.42C33.42 55.21 33.43 55.15 33.44 55.08C32.67 54.8 31.87 54.66 31.06 54.89C30.25 55.12 29.47 55.46 28.63 55.76C28.54 55.45 28.46 55.17 28.35 54.78C27.32 55.36 26.32 55.91 25.26 56.5C25.19 56.13 25.17 55.93 25.1 55.74C25 55.47 24.84 55.01 24.72 55.01C24.41 55.02 23.99 55.15 23.81 55.4C23.2 56.27 22.42 56.8 21.43 57.01C21.33 57.03 21.22 57.06 21.12 57.07C21.05 57.07 20.99 57.05 20.88 57.04C20.87 56.77 20.88 56.52 20.84 56.27C20.76 55.74 20.48 55.61 20.07 55.91C19.95 55.99 19.81 56.06 19.73 56.17C18.97 57.16 17.85 57.14 16.8 57.34C16.76 57.34 16.71 57.31 16.63 57.28C16.68 57.1 16.73 56.93 16.78 56.75C16.93 56.21 16.8 56.05 16.27 56.18C15.86 56.28 15.43 56.4 15.09 56.64C14.45 57.09 13.72 57.1 13.02 57.21C12.58 57.28 12.46 57.11 12.57 56.68C12.7 56.16 12.49 55.92 12.01 56.09C10.92 56.46 10.01 56.06 9.12 55.47C9.04 55.41 8.98 55.31 8.92 55.24C9.22 54.5933 9.03667 54.18 8.37 54C8.08 53.92 7.79 53.83 7.49 53.8C6.92 53.74 6.53 53.42 6.16 52.99C5.87 52.64 5.87 52.41 6.23 52.13C6.37 52.02 6.53 51.75 6.49 51.64C6.41 51.45 6.2 51.31 6.01 51.2C5.9 51.14 5.72 51.15 5.59 51.2C4.47 51.56 3.89 50.87 3.41 49.97C3.36 49.87 3.32 49.77 3.27 49.67C2.85 48.87 2.85 48.89 3.67 48.56C3.85 48.49 4.02 48.21 4.06 48.01C4.08 47.91 3.8 47.66 3.62 47.62C2.6 47.37 2.03 46.65 1.72 45.67C1.56 45.17 1.48 44.64 1.36 44.1C1.79 44.04 2.14 44.04 2.47 43.95C2.93 43.83 2.94 43.66 2.66 43.27C2.06 42.44 1.48 41.61 0.929999 40.75C0.539999 40.13 0.929999 39.38 1.67 39.2C2.49 39.01 2.5 38.93 2.28 38.07C2.15 37.57 2.13 37.05 2.06 36.51C2.81 36.45 3.29 36.56 3.67 37.19C4.04 37.8 4.58 38.29 5.04 38.84C5.23 39.07 5.4 39.33 5.59 39.57C6.22 40.35 6.85 41.12 7.49 41.91H6.76C6.74 41.97 6.73 42.03 6.71 42.09C7 42.19 7.31 42.43 7.57 42.37C8.24 42.21 8.31 42.76 8.55 43.15L6.29 42.54C6.26 42.61 6.24 42.67 6.21 42.74C6.36 42.84 6.51 42.99 6.68 43.03C7.43 43.24 8.19 43.41 8.93 43.61C9.22 43.69 9.5 43.82 9.78 43.93C9.77 44 9.75 44.06 9.74 44.13C9.4 44.07 9.05 44.03 8.71 43.96C7.41 43.66 6.18 43.21 5.1 42.35C4.15 41.6 3.12 40.96 2.13 40.28C1.99 40.19 1.83 40.14 1.62 40.15C1.99 40.92 2.78 41.12 3.36 41.58C3.99 42.08 4.65 42.54 5.32 42.98C5.97 43.41 6.61 43.88 7.31 44.2C8.03 44.52 8.82 44.67 9.57 44.95C8.95 45.07 8.36 44.88 7.77 44.68C6.25 44.16 4.97 43.16 3.6 42.33C3.48 42.26 3.34 42.23 3.15 42.28C3.22 42.37 3.28 42.49 3.37 42.55C4.86 43.4 6.2 44.58 7.88 45.04C8.7 45.26 9.53 45.5 10.37 45.52C11.34 45.54 11.97 46.17 12.79 46.63C11.3 47.35 9.78 47.16 8.18 47.21C9.05 47.73 9.88 47.48 10.68 47.57C9.23 48.04 7.84 47.71 6.52 47.12C5.2 46.53 3.96 45.76 2.57 45.1C2.64 45.22 2.68 45.4 2.78 45.46C3.46 45.91 4.16 46.33 4.85 46.76C4.94 46.82 5.02 46.9 5.06 47.07C4.94 47.04 4.82 47.01 4.7 46.98C4.89 47.49 6.53 48.22 7.25 48.08C6.56 47.77 5.92 47.48 5.29 47.2C5.31 47.15 5.33 47.1 5.35 47.05C6.05 47.32 6.73 47.64 7.44 47.83C8.16 48.03 8.93 48.25 9.66 48.2C11.25 48.07 12.83 47.77 14.42 47.56C14.59 47.54 14.77 47.6 14.94 47.71C12.62 48.26 10.34 49.11 7.9 48.36C7.89 48.45 7.88 48.54 7.87 48.63C8.34 48.75 8.8 48.92 9.27 48.98C10.46 49.15 11.62 48.92 12.77 48.63C13.64 48.41 14.53 48.15 15.41 48.14C16.02 48.14 16.63 48.55 17.22 48.77C16.4 49.23 15.64 49.6 14.94 50.06C13.9 50.75 12.74 51.02 11.56 51.22C11.3 51.26 11.03 51.35 10.78 51.32C10.36 51.28 9.94 51.17 9.51 51.1C9.27 51.06 9.02 51.04 8.77 51.02C8.67 51.02 8.56 51.05 8.48 51.02C7.3 50.55 6.12 50.08 4.95 49.59C4.71 49.49 4.52 49.29 4.29 49.17C4.17 49.11 4.02 49.11 3.89 49.09C3.94 49.22 3.94 49.41 4.03 49.47C4.32 49.67 4.65 49.82 4.96 49.99C5.24 50.15 5.63 50.16 5.68 50.63C5.68 50.7 5.86 50.77 5.97 50.8C7.44 51.19 8.9 51.57 10.37 51.95C10.57 52 10.77 52.07 11.02 52.15C10.24 52.7 9.49 53.04 8.6 53.01C8.11 53 7.62 53.09 7.14 53.17C7.06 53.18 7 53.32 6.92 53.4C7.02 53.46 7.13 53.59 7.2 53.57C8.28 53.29 9.48 53.58 10.48 52.88C10.52 52.85 10.6 52.88 10.67 52.88C10.69 52.94 10.71 52.99 10.72 53.05C10.36 53.19 10 53.32 9.65 53.48C9.52 53.54 9.42 53.68 9.3 53.78C9.44 53.8 9.6 53.87 9.72 53.82C10.56 53.44 11.4 53.05 12.22 52.64C12.4 52.55 12.55 52.37 12.79 52.17C12.1 51.94 11.8 52.57 11.32 52.65C11.86 52.15 12.17 51.38 13.06 51.36C13.84 51.34 14.54 51.02 15.21 50.54C15.94 50.02 16.65 49.29 17.82 49.65C16.24 50.67 14.68 51.51 12.96 52.01C12.98 52.09 13 52.17 13.02 52.24C13.49 52.13 14 52.11 14.42 51.9C15.71 51.28 16.98 50.61 18.24 49.92C19.19 49.4 20.09 49.51 21.09 50.05C20.89 50.18 20.77 50.29 20.62 50.36C19.1 51.06 17.67 51.89 16.48 53.15C16.14 53.51 15.6 53.66 15.16 53.93C13.8 54.76 12.34 55.27 10.8 55.53C10.63 55.56 10.47 55.67 10.25 55.76C11.09 56.26 14.9 54.95 16.31 53.74C16.39 54.16 16.62 54.22 16.86 53.94C18.03 52.58 19.67 52.08 21.14 51.26C21.6 51 22.1 50.8 22.59 50.59C22.79 50.51 23.01 50.5 23.22 50.45C23.24 50.51 23.26 50.56 23.28 50.62L20.98 51.98C21.01 52.04 21.04 52.1 21.06 52.17C21.47 52 21.88 51.84 22.29 51.65C22.58 51.52 22.86 51.35 23.13 51.18C23.84 50.73 24.58 50.63 25.48 50.91C24.95 51.14 24.42 51.29 23.98 51.59C23.01 52.26 22.09 53 21.15 53.71C19.91 54.65 18.67 55.58 17.43 56.52C17.33 56.6 17.29 56.75 17.22 56.87C17.36 56.87 17.53 56.92 17.63 56.85C18.93 55.91 20.22 54.95 21.52 54C22.48 53.29 23.43 52.56 24.4 51.86C24.87 51.53 25.39 51.39 26.01 51.7C25.34 52 24.69 52.24 24.08 52.56C23.49 52.87 22.93 53.25 22.36 53.6C22.4 53.68 22.44 53.76 22.48 53.83C22.82 53.67 23.16 53.51 23.5 53.35C24.53 52.88 25.55 52.39 26.59 51.95C26.97 51.79 27.41 51.69 27.76 51.89C26.7 52.48 25.62 53 24.63 53.67C23.72 54.28 22.89 55.05 22.03 55.75C21.91 55.85 21.78 55.97 21.72 56.11C21.66 56.25 21.7 56.43 21.69 56.59C21.83 56.54 22.01 56.52 22.11 56.42C23.89 54.69 25.77 53.14 28.15 52.4C28.42 52.31 28.69 52.18 28.95 52.08L29.02 52.25C27.91 52.77 26.8 53.29 25.69 53.8C25.72 53.89 25.75 53.99 25.79 54.08C26 54.02 26.21 53.97 26.41 53.88C27.42 53.45 28.42 53.01 29.43 52.59C29.51 52.56 29.61 52.59 29.86 52.61C29.11 53.11 28.28 53.11 27.77 53.83C27.89 53.83 28.03 53.89 28.14 53.85C28.37 53.77 28.6 53.66 28.82 53.55C29.55 53.21 29.69 53.23 30.56 53.84C29.56 54 28.46 53.5 27.86 54.7C28.02 54.66 28.18 54.63 28.33 54.57C28.72 54.41 29.09 54.06 29.54 54.46C29.58 54.5 29.68 54.46 29.75 54.46C30.46 54.46 31.18 54.48 31.89 54.47C32.18 54.47 32.46 54.39 32.75 54.37C32.86 54.37 33.01 54.35 33.08 54.42C33.51 54.85 33.88 54.79 34.09 54.43C34.58 54.4 34.95 54.36 35.31 54.35C35.79 54.34 36.27 54.35 36.75 54.35C37.22 54.07 37.72 53.71 38.27 53.47C38.81 53.24 39.37 53.37 39.81 53.76C40.62 54.47 41.41 55.22 42.21 55.94C42.34 56.06 42.49 56.16 42.71 56.33C42.55 55.49 41.32 54.23 39.6 53.05C39.84 52.67 40.1 52.53 40.39 53.01C40.42 53.05 40.47 53.1 40.51 53.11C40.78 53.19 41.05 53.27 41.31 53.34C41.14 53.14 40.98 52.95 40.81 52.75C40.74 52.67 40.67 52.6 40.6 52.52L40.67 52.36C40.86 52.44 41.08 52.49 41.24 52.61C41.48 52.81 41.68 52.95 42 52.75C42.11 52.68 42.36 52.77 42.49 52.87C43.17 53.4 43.82 53.96 44.49 54.5C44.63 54.61 44.79 54.68 44.94 54.77C44.97 54.73 45 54.69 45.03 54.66C44.97 54.51 44.91 54.36 44.82 54.14C45.97 54.78 46.94 55.7 48.24 55.8C48.26 55.76 48.29 55.71 48.31 55.67C48.23 55.6 48.16 55.48 48.06 55.45C46.87 55.06 45.91 54.32 44.96 53.5C44.17 52.81 43.27 52.24 42.42 51.61C42.35 51.56 42.31 51.47 42.26 51.4C42.28 51.35 42.3 51.29 42.32 51.24C42.5 51.3 42.7 51.32 42.86 51.42C43.34 51.69 43.8 52 44.28 52.27C44.4 52.34 44.56 52.3 44.71 52.31C44.69 52.17 44.66 52.04 44.65 51.98C44.85 51.62 45.03 51.29 45.27 50.86C44.97 50.75 44.71 50.65 44.45 50.55C44.49 50.77 44.53 50.99 44.58 51.22C44.12 51.41 43.93 50.33 43.22 50.8C43.6 51.13 43.92 51.4 44.23 51.67C44.2 51.71 44.18 51.75 44.15 51.78C43.74 51.5 43.34 51.22 42.93 50.93C44 49.64 44.32 49.62 45.53 50.21C46.25 50.56 46.92 51.05 47.57 51.54C48.78 52.45 49.96 53.41 51.16 54.35C51.23 54.41 51.34 54.42 51.43 54.45L51.54 54.29C50.58 53.49 49.61 52.7 48.65 51.9L48.69 51.76C49.41 51.83 50.13 51.89 50.86 51.97C51.16 52 51.45 52.08 51.75 52.08C52.36 52.08 52.87 52.31 53.37 52.67C53.8 52.98 54.29 53.21 54.77 53.43C54.88 53.48 55.06 53.36 55.2 53.31C55.09 53.22 54.99 53.11 54.87 53.04C54.6 52.9 54.26 52.86 54.07 52.66C53.21 51.77 52.12 51.62 51.01 51.5C49.91 51.38 48.81 51.22 47.71 51.08C47.63 51.07 47.54 51.02 47.49 50.96C46.78 50.13 45.85 49.74 44.84 49.31C45.05 49.28 45.26 49.21 45.47 49.22C45.75 49.23 46.02 49.32 46.3 49.34C46.44 49.34 46.59 49.26 46.73 49.22C46.62 49.14 46.51 49.04 46.39 48.98C46.28 48.92 46.15 48.87 46.03 48.82L46.05 48.66H47.84C47.84 48.59 47.86 48.52 47.86 48.45L46.18 48.12C46.19 48.05 46.21 47.99 46.22 47.92C47.35 48.09 48.51 48.15 49.6 48.45C51.35 48.94 53.05 49.6 54.77 50.18C55.79 50.52 56.81 50.91 57.91 50.76C58.57 50.67 59.23 50.53 59.92 50.41C59.66 50.01 55.6 49.28 54.91 49.6C55.9 49.82 56.89 50.04 57.89 50.26C57.88 50.31 57.87 50.36 57.86 50.41C56.58 50.39 55.37 50.03 54.08 49.44C54.4 49.41 54.6 49.39 54.8 49.37C54.81 49.29 54.82 49.22 54.84 49.14C52.69 48.36 50.55 47.59 48.4 46.81C48.4 46.76 48.4 46.72 48.4 46.67C48.72 46.65 49.04 46.6 49.36 46.61C49.7 46.63 50.04 46.7 50.39 46.76C50.41 46.69 50.44 46.62 50.46 46.54C50.19 46.43 49.91 46.32 49.58 46.18C49.7 46.13 49.79 46.06 49.89 46.05C50.82 45.9 51.71 46.02 52.58 46.42C52.73 46.49 52.91 46.48 53.09 46.42C52.02 45.74 50.87 45.49 49.63 45.61C49.63 45.56 49.65 45.5 49.65 45.45C50.39 45.45 51.16 45.3 51.86 45.48C53.46 45.89 55.03 46.46 56.6 46.98C58.51 47.6 60.34 48.51 62.37 48.65C62.52 48.66 62.67 48.77 62.82 48.84C62.82 48.91 62.81 48.97 62.8 49.04L62.84 49.03ZM43.73 53.35C44.22 53.28 44.44 53.6 44.65 53.93C44.62 53.97 44.59 54.01 44.56 54.05C44.28 53.82 44.01 53.58 43.73 53.35ZM54.4 45.6C54.42 45.52 54.44 45.44 54.46 45.36C55.07 45.59 55.69 45.82 56.3 46.05C56.28 46.12 56.26 46.18 56.24 46.25C55.63 46.03 55.01 45.81 54.4 45.6ZM67.06 42.14C66.78 42.58 66.41 42.96 66.08 43.37C65.97 43.51 65.85 43.65 65.74 43.8C65.51 44.11 65.58 44.38 65.93 44.48C66.44 44.62 66.41 44.97 66.16 45.26C65.84 45.62 65.44 45.93 65.03 46.19C64.67 46.41 64.25 46.51 63.86 46.69C63.45 46.88 63.42 47.19 63.77 47.48C63.81 47.51 63.86 47.53 63.9 47.57C64.11 47.76 64.32 47.96 64.53 48.15C64.29 48.36 64.05 48.58 63.69 48.89C63.51 47.86 62.86 47.97 62.26 47.94C61.91 47.92 61.57 47.82 61.23 47.73C60.56 47.57 59.9 47.4 59.24 47.22C59.12 47.19 59.01 47.13 58.9 47.09C58.9 47.04 58.91 46.99 58.92 46.94C60.3 46.72 61.68 46.5 63.05 46.28L63.07 46.15C62.83 46.11 62.58 46 62.35 46.03C61.03 46.22 59.71 46.44 58.38 46.65C58.21 46.68 58.03 46.65 57.84 46.54C58.17 46.46 58.51 46.4 58.83 46.3C59.37 46.14 59.89 45.94 60.43 45.79C60.82 45.68 61.22 45.56 61.61 45.56C62.68 45.57 63.76 45.65 64.83 45.7C65.05 45.71 65.27 45.7 65.49 45.7C65.5 45.64 65.52 45.58 65.53 45.51C65.4 45.45 65.28 45.34 65.15 45.32C64.04 45.22 62.93 45.05 61.83 45.08C61.14 45.1 60.45 45.42 59.76 45.59C58.99 45.78 58.22 46.06 57.45 46.09C56.95 46.11 56.44 45.73 55.93 45.54C55.04 45.2 54.15 44.85 53.24 44.55C52.96 44.46 52.62 44.54 52.31 44.54C52.29 44.6 52.28 44.66 52.26 44.72C52.87 44.91 53.48 45.1 54.09 45.29L54.06 45.41C52.99 45.22 51.91 45.04 50.85 44.85C51.27 44.44 53.44 44.05 55.82 43.98C55.74 43.86 55.67 43.77 55.59 43.65C56.15 43.34 56.7 43.63 57.26 43.69C58.38 43.82 59.49 43.92 60.61 44.02C60.7 44.02 60.8 43.95 61.04 43.85C59.02 43.54 57.15 43.25 55.27 42.96C55.27 42.91 55.25 42.86 55.24 42.81C55.52 42.77 55.81 42.67 56.09 42.71C56.93 42.81 57.76 42.97 58.6 43.09C59.15 43.17 59.71 43.24 60.27 43.31C60.92 43.39 61.58 43.39 62.21 43.54C63.23 43.8 64.24 43.76 65.25 43.6C65.37 43.58 65.48 43.44 65.6 43.36C65.58 43.32 65.56 43.28 65.54 43.24C65 43.28 64.46 43.39 63.93 43.34C63 43.25 62.09 42.98 61.17 42.91C59.82 42.8 58.47 42.68 57.14 42.38C56.48 42.23 55.74 42.4 55.04 42.43C54.87 42.43 54.7 42.47 54.46 42.51C55.49 41.65 56.57 41.48 58.69 41.84C58.57 41.61 58.49 41.46 58.39 41.27C59.1 40.97 59.81 41.56 60.54 41.56C60.56 41.49 60.57 41.43 60.59 41.36C60.14 41.18 59.69 41.01 59.23 40.83C59.24 40.77 59.25 40.72 59.27 40.66C60.33 40.7 61.35 40.94 62.34 41.43C62.36 41.36 62.39 41.3 62.41 41.23C61.93 40.98 61.46 40.73 60.98 40.48C60.99 40.45 61 40.42 61.01 40.39C62.6 40.97 64.18 41.56 65.77 42.14C65.8 42.1 65.83 42.06 65.86 42.02C65.7 41.89 65.57 41.72 65.39 41.65C64.3 41.22 63.21 40.81 62.12 40.39C62.06 40.37 62 40.33 61.95 40.3C61.95 40.24 61.93 40.18 61.92 40.12C62.18 40.06 62.44 39.94 62.69 39.96C63.78 40.07 64.86 40.22 65.95 40.34C66.28 40.38 66.58 40.33 66.67 39.75C66.23 39.75 65.83 39.78 65.44 39.75C65.1 39.72 64.64 39.89 64.52 39.28C64.52 39.24 64.09 39.27 63.87 39.31C63.61 39.37 63.35 39.47 63.09 39.56C63.06 39.49 63.03 39.41 63 39.34C63.41 39.14 63.83 38.95 64.24 38.75C63.68 38.51 63.24 38.72 62.79 38.98C62.35 39.23 61.89 39.43 61.4 39.57C61.92 38.84 62.59 38.35 63.43 38.17C64.27 37.99 65.13 37.86 65.98 37.75C66.14 37.73 66.33 37.89 66.56 37.99C65.94 38.7 65.97 38.92 66.6 39.36C67.13 39.73 67.16 39.91 66.7 40.37C66.42 40.65 66.64 40.8 66.82 40.93C67.35 41.34 67.42 41.53 67.05 42.12L67.06 42.14Z" fill="#C6AF66"/>
</g>
</g>
</g>
<defs>
<clipPath id="clip0_2_54">
<rect width="68.03" height="78.7" fill="white"/>
</clipPath>
</defs>
</svg>
