<svg width="35" height="35" viewBox="0 0 49 60" fill="none" xmlns="http://www.w3.org/2000/svg">
<path d="M48.5 60H45.5V46.5C45.5 44.5109 44.7098 42.6032 43.3033 41.1967C41.8968 39.7902 39.9891 39 38 39H11C9.01088 39 7.10322 39.7902 5.6967 41.1967C4.29018 42.6032 3.5 44.5109 3.5 46.5V60H0.5V46.5C0.5 43.7152 1.60625 41.0445 3.57538 39.0754C5.54451 37.1063 8.21523 36 11 36H38C40.7848 36 43.4555 37.1063 45.4246 39.0754C47.3938 41.0445 48.5 43.7152 48.5 46.5V60ZM24.5 33C21.2366 33 18.0465 32.0323 15.3331 30.2193C12.6197 28.4062 10.5048 25.8293 9.25599 22.8143C8.00714 19.7993 7.68039 16.4817 8.31704 13.281C8.9537 10.0803 10.5252 7.14031 12.8327 4.83275C15.1403 2.52518 18.0803 0.953706 21.281 0.31705C24.4817 -0.319606 27.7993 0.00714925 30.8143 1.256C33.8293 2.50484 36.4062 4.61969 38.2192 7.3331C40.0323 10.0465 41 13.2366 41 16.5C41 20.8761 39.2616 25.0729 36.1673 28.1673C33.0729 31.2616 28.8761 33 24.5 33ZM24.5 3.00001C21.83 3.00001 19.2199 3.79177 16.9998 5.27517C14.7797 6.75857 13.0494 8.86698 12.0276 11.3338C11.0058 13.8006 10.7385 16.515 11.2594 19.1337C11.7803 21.7525 13.0661 24.1579 14.9541 26.0459C16.8421 27.934 19.2475 29.2197 21.8663 29.7406C24.485 30.2615 27.1994 29.9942 29.6662 28.9724C32.133 27.9506 34.2414 26.2203 35.7248 24.0002C37.2082 21.7801 38 19.1701 38 16.5C38 12.9196 36.5777 9.48581 34.0459 6.95407C31.5142 4.42232 28.0804 3.00001 24.5 3.00001Z" fill="black"/>
</svg>
